G04 #@! TF.FileFunction,Copper,L1,Top,Signal*
%FSLAX46Y46*%
G04 Gerber Fmt 4.6, Leading zero omitted, Abs format (unit mm)*
G04 Created by KiCad (PCBNEW 4.0.4-stable) date 11/08/16 21:01:40*
%MOMM*%
%LPD*%
G01*
G04 APERTURE LIST*
%ADD10C,0.100000*%
%ADD11R,2.000000X1.000000*%
%ADD12R,1.000000X2.000000*%
%ADD13R,0.750000X1.200000*%
%ADD14R,0.900000X1.200000*%
%ADD15R,1.600000X2.180000*%
%ADD16C,1.524000*%
%ADD17C,2.999740*%
%ADD18C,0.600000*%
%ADD19C,0.400000*%
%ADD20C,0.200000*%
%ADD21C,0.250000*%
%ADD22C,0.254000*%
G04 APERTURE END LIST*
D10*
D11*
X136136000Y-91950000D03*
X136136000Y-93950000D03*
X136136000Y-95950000D03*
X136136000Y-97950000D03*
X136136000Y-99950000D03*
X136136000Y-101950000D03*
X136136000Y-103950000D03*
X136136000Y-105950000D03*
D12*
X138636000Y-107450000D03*
X140636000Y-107450000D03*
X142636000Y-107450000D03*
X144636000Y-107450000D03*
X146636000Y-107450000D03*
X148636000Y-107450000D03*
D11*
X151136000Y-105950000D03*
X151136000Y-103950000D03*
X151136000Y-101950000D03*
X151136000Y-99950000D03*
X151136000Y-97950000D03*
X151136000Y-95950000D03*
X151136000Y-93950000D03*
X151136000Y-91950000D03*
D13*
X136398000Y-109032000D03*
X136398000Y-110932000D03*
D14*
X153416000Y-89832000D03*
X153416000Y-92032000D03*
X153416000Y-95420000D03*
X153416000Y-97620000D03*
X153416000Y-99611000D03*
X153416000Y-101811000D03*
D15*
X132588000Y-98044000D03*
X132592640Y-88839140D03*
D14*
X153416000Y-106086000D03*
X153416000Y-103886000D03*
D15*
X132588000Y-110296860D03*
X132592640Y-101092000D03*
D16*
X145756000Y-114427000D03*
X143256000Y-114427000D03*
X140716000Y-114427000D03*
D17*
X151638000Y-82042000D03*
X133350000Y-113919000D03*
X151511000Y-113792000D03*
X148209000Y-82042000D03*
X135636000Y-82042000D03*
X142494000Y-82042000D03*
X139065000Y-82042000D03*
D18*
X146685000Y-93533002D03*
X140462000Y-97155000D03*
X151511000Y-107569000D03*
X137795000Y-109220000D03*
X135255000Y-87757000D03*
X132334000Y-94742000D03*
X143256000Y-113157000D03*
X143256000Y-115697000D03*
X142367000Y-115316000D03*
X135001000Y-112268000D03*
X135001000Y-115443000D03*
X135509000Y-113919000D03*
X135586242Y-83996411D03*
X146558000Y-83312000D03*
X131479757Y-99568000D03*
X137795000Y-110744000D03*
X149860000Y-105174000D03*
X140970000Y-103632000D03*
X149860000Y-109982000D03*
X144907000Y-87630000D03*
X147701000Y-93472000D03*
X148717000Y-97155000D03*
X137922000Y-101854000D03*
X137888105Y-103939679D03*
X137922000Y-99822000D03*
X145003000Y-105156000D03*
X134366000Y-87757000D03*
X145669000Y-102743000D03*
X153416000Y-88519000D03*
X153924000Y-94107000D03*
X134620000Y-96012000D03*
X132588000Y-103759000D03*
X133604000Y-92964000D03*
X149860000Y-83439000D03*
X147066000Y-112014000D03*
X136525000Y-84963000D03*
D19*
X136398000Y-109032000D02*
X136398000Y-106212000D01*
X136398000Y-106212000D02*
X136136000Y-105950000D01*
X137795000Y-109220000D02*
X136586000Y-109220000D01*
X136586000Y-109220000D02*
X136398000Y-109032000D01*
X139573000Y-109220000D02*
X137795000Y-109220000D01*
X141859000Y-111506000D02*
X139573000Y-109220000D01*
X141859000Y-113284000D02*
X141859000Y-111506000D01*
X140716000Y-114427000D02*
X141859000Y-113284000D01*
D20*
X145380999Y-103343001D02*
X145380999Y-103889999D01*
X145380999Y-103889999D02*
X144402999Y-104867999D01*
X144402999Y-104867999D02*
X144402999Y-105444001D01*
X144402999Y-105444001D02*
X145083997Y-106124999D01*
X145083997Y-106124999D02*
X145396001Y-106124999D01*
X141294003Y-103031001D02*
X141270001Y-103006999D01*
D21*
X135255000Y-87757000D02*
X137469945Y-89971945D01*
X137469945Y-89971945D02*
X137469945Y-94162945D01*
X137469945Y-94162945D02*
X140462000Y-97155000D01*
D20*
X145068999Y-95215001D02*
X146685000Y-93599000D01*
X146685000Y-93599000D02*
X146685000Y-93533002D01*
X153416000Y-99611000D02*
X153416000Y-99761000D01*
X153416000Y-99761000D02*
X152027001Y-101149999D01*
X152027001Y-101149999D02*
X148150003Y-101149999D01*
X148150003Y-101149999D02*
X145957001Y-103343001D01*
X145957001Y-103343001D02*
X145380999Y-103343001D01*
X145380999Y-103343001D02*
X145068999Y-103031001D01*
X145068999Y-103031001D02*
X145068999Y-95215001D01*
D21*
X141270001Y-103006999D02*
X141270001Y-97963001D01*
X141270001Y-97963001D02*
X140462000Y-97155000D01*
X150304999Y-108775001D02*
X151511000Y-107569000D01*
X136136000Y-105950000D02*
X137726998Y-105950000D01*
X145986001Y-108775001D02*
X150304999Y-108775001D01*
X137726998Y-105950000D02*
X140669999Y-103006999D01*
X141270001Y-103006999D02*
X144388001Y-106124999D01*
X140669999Y-103006999D02*
X141270001Y-103006999D01*
X144388001Y-106124999D02*
X145396001Y-106124999D01*
X145396001Y-106124999D02*
X145810999Y-106539997D01*
X145810999Y-106539997D02*
X145810999Y-108599999D01*
X145810999Y-108599999D02*
X145986001Y-108775001D01*
X135255000Y-87757000D02*
X134955001Y-88056999D01*
X132334000Y-91567000D02*
X132334000Y-94742000D01*
X134955001Y-88056999D02*
X134955001Y-88945999D01*
X134955001Y-88945999D02*
X132334000Y-91567000D01*
X132334000Y-96450000D02*
X132334000Y-94742000D01*
X132588000Y-98044000D02*
X132588000Y-96704000D01*
X132588000Y-96704000D02*
X132334000Y-96450000D01*
D20*
X143256000Y-115697000D02*
X143256000Y-114427000D01*
X135001000Y-112268000D02*
X136337000Y-110932000D01*
X133350000Y-113919000D02*
X134849869Y-112419131D01*
X134849869Y-112419131D02*
X135001000Y-112268000D01*
X133350000Y-113919000D02*
X134874000Y-115443000D01*
X134874000Y-115443000D02*
X135001000Y-115443000D01*
X133350000Y-113919000D02*
X135509000Y-113919000D01*
X135586242Y-82091758D02*
X135586242Y-83996411D01*
X135636000Y-82042000D02*
X135586242Y-82091758D01*
D21*
X146558000Y-83312000D02*
X146939000Y-83312000D01*
X146939000Y-83312000D02*
X148209000Y-82042000D01*
D20*
X132592640Y-101092000D02*
X132592640Y-100680883D01*
X132592640Y-100680883D02*
X131479757Y-99568000D01*
X136398000Y-110932000D02*
X137607000Y-110932000D01*
X137607000Y-110932000D02*
X137795000Y-110744000D01*
X136337000Y-110932000D02*
X136398000Y-110932000D01*
D21*
X151136000Y-105950000D02*
X150636000Y-105950000D01*
X150636000Y-105950000D02*
X149860000Y-105174000D01*
D20*
X153416000Y-106086000D02*
X153416000Y-106886000D01*
X153416000Y-106886000D02*
X150320000Y-109982000D01*
X150320000Y-109982000D02*
X149860000Y-109982000D01*
D21*
X149860000Y-109982000D02*
X149560001Y-109682001D01*
X149560001Y-109682001D02*
X144782999Y-109682001D01*
X144782999Y-109682001D02*
X143461001Y-108360003D01*
X143461001Y-108360003D02*
X143461001Y-106123001D01*
X143461001Y-106123001D02*
X140970000Y-103632000D01*
X144907000Y-90253736D02*
X144907000Y-87630000D01*
X147701000Y-93472000D02*
X147701000Y-93047736D01*
X147701000Y-93047736D02*
X144907000Y-90253736D01*
X148717000Y-98781000D02*
X148717000Y-97155000D01*
X151136000Y-99950000D02*
X149886000Y-99950000D01*
X149886000Y-99950000D02*
X148717000Y-98781000D01*
X137922000Y-101854000D02*
X136232000Y-101854000D01*
X136232000Y-101854000D02*
X136136000Y-101950000D01*
X137877784Y-103950000D02*
X137888105Y-103939679D01*
X136136000Y-103950000D02*
X137877784Y-103950000D01*
X137922000Y-99822000D02*
X136264000Y-99822000D01*
X136264000Y-99822000D02*
X136136000Y-99950000D01*
X151136000Y-101950000D02*
X153277000Y-101950000D01*
X153277000Y-101950000D02*
X153416000Y-101811000D01*
X146680000Y-105156000D02*
X145003000Y-105156000D01*
X151136000Y-101950000D02*
X149886000Y-101950000D01*
X149886000Y-101950000D02*
X146680000Y-105156000D01*
X135118001Y-87004999D02*
X134366000Y-87757000D01*
X150636000Y-93950000D02*
X145532001Y-88846001D01*
X145532001Y-88846001D02*
X145532001Y-87329999D01*
X145532001Y-87329999D02*
X145207001Y-87004999D01*
X145207001Y-87004999D02*
X135118001Y-87004999D01*
X145669000Y-102743000D02*
X148082000Y-100330000D01*
X148082000Y-100330000D02*
X148082000Y-96504000D01*
X150636000Y-93950000D02*
X148082000Y-96504000D01*
X151136000Y-93950000D02*
X150636000Y-93950000D01*
D20*
X153416000Y-88519000D02*
X153416000Y-89832000D01*
X151136000Y-95950000D02*
X151252998Y-95950000D01*
X151252998Y-95950000D02*
X153416000Y-93786998D01*
X153416000Y-93786998D02*
X153416000Y-92032000D01*
X153416000Y-95420000D02*
X153416000Y-94615000D01*
X153416000Y-94615000D02*
X153924000Y-94107000D01*
X151136000Y-97950000D02*
X153043000Y-97950000D01*
X153043000Y-97950000D02*
X153416000Y-97577000D01*
D21*
X134620000Y-96012000D02*
X136074000Y-96012000D01*
X136074000Y-96012000D02*
X136136000Y-95950000D01*
X132592640Y-88839140D02*
X132592640Y-90179140D01*
X132592640Y-90179140D02*
X130854757Y-91917023D01*
X130854757Y-91917023D02*
X130854757Y-102025757D01*
X130854757Y-102025757D02*
X132588000Y-103759000D01*
X151136000Y-103950000D02*
X153352000Y-103950000D01*
X153352000Y-103950000D02*
X153416000Y-103886000D01*
X132588000Y-110296860D02*
X133435379Y-110296860D01*
X133435379Y-110296860D02*
X133731000Y-110001239D01*
X133731000Y-110001239D02*
X133731000Y-93855000D01*
X133731000Y-93855000D02*
X133604000Y-93728000D01*
X133604000Y-93728000D02*
X133604000Y-92964000D01*
X133604000Y-92964000D02*
X134618000Y-91950000D01*
X134618000Y-91950000D02*
X136136000Y-91950000D01*
X135705613Y-91950000D02*
X136136000Y-91950000D01*
X149860000Y-83439000D02*
X150241000Y-83439000D01*
X150241000Y-83439000D02*
X151638000Y-82042000D01*
D20*
X142494000Y-82042000D02*
X151136000Y-90684000D01*
X151136000Y-90684000D02*
X151136000Y-91950000D01*
D21*
X147066000Y-112014000D02*
X145402993Y-112014000D01*
X145402993Y-112014000D02*
X142636000Y-109247007D01*
X142636000Y-109247007D02*
X142636000Y-107450000D01*
D20*
X151511000Y-113792000D02*
X146391000Y-113792000D01*
X146391000Y-113792000D02*
X145756000Y-114427000D01*
X136525000Y-84963000D02*
X139065000Y-82423000D01*
X139065000Y-82423000D02*
X139065000Y-82042000D01*
D22*
G36*
X150461386Y-112131264D02*
X150290163Y-112391558D01*
X151511000Y-113612395D01*
X152731837Y-112391558D01*
X152560614Y-112131264D01*
X151925729Y-111887000D01*
X153955000Y-111887000D01*
X153955000Y-116109000D01*
X144780000Y-116109000D01*
X144780000Y-115293365D01*
X145069240Y-115293365D01*
X145150097Y-115477018D01*
X145598043Y-115628959D01*
X146070037Y-115597913D01*
X146361903Y-115477018D01*
X146442760Y-115293365D01*
X146341837Y-115192442D01*
X150290163Y-115192442D01*
X150461386Y-115452736D01*
X151176819Y-115727990D01*
X151943129Y-115708507D01*
X152560614Y-115452736D01*
X152731837Y-115192442D01*
X151511000Y-113971605D01*
X150290163Y-115192442D01*
X146341837Y-115192442D01*
X145756000Y-114606605D01*
X145069240Y-115293365D01*
X144780000Y-115293365D01*
X144780000Y-115065491D01*
X144889635Y-115113760D01*
X145576395Y-114427000D01*
X145935605Y-114427000D01*
X146622365Y-115113760D01*
X146806018Y-115032903D01*
X146957959Y-114584957D01*
X146926913Y-114112963D01*
X146806018Y-113821097D01*
X146622365Y-113740240D01*
X145935605Y-114427000D01*
X145576395Y-114427000D01*
X145562253Y-114412858D01*
X145741858Y-114233253D01*
X145756000Y-114247395D01*
X146442760Y-113560635D01*
X146397494Y-113457819D01*
X149575010Y-113457819D01*
X149594493Y-114224129D01*
X149850264Y-114841614D01*
X150110558Y-115012837D01*
X151331395Y-113792000D01*
X151690605Y-113792000D01*
X152911442Y-115012837D01*
X153171736Y-114841614D01*
X153446990Y-114126181D01*
X153427507Y-113359871D01*
X153171736Y-112742386D01*
X152911442Y-112571163D01*
X151690605Y-113792000D01*
X151331395Y-113792000D01*
X150110558Y-112571163D01*
X149850264Y-112742386D01*
X149575010Y-113457819D01*
X146397494Y-113457819D01*
X146376880Y-113411000D01*
X148463000Y-113411000D01*
X148512410Y-113400994D01*
X148552803Y-113373803D01*
X150039606Y-111887000D01*
X151051091Y-111887000D01*
X150461386Y-112131264D01*
X150461386Y-112131264D01*
G37*
X150461386Y-112131264D02*
X150290163Y-112391558D01*
X151511000Y-113612395D01*
X152731837Y-112391558D01*
X152560614Y-112131264D01*
X151925729Y-111887000D01*
X153955000Y-111887000D01*
X153955000Y-116109000D01*
X144780000Y-116109000D01*
X144780000Y-115293365D01*
X145069240Y-115293365D01*
X145150097Y-115477018D01*
X145598043Y-115628959D01*
X146070037Y-115597913D01*
X146361903Y-115477018D01*
X146442760Y-115293365D01*
X146341837Y-115192442D01*
X150290163Y-115192442D01*
X150461386Y-115452736D01*
X151176819Y-115727990D01*
X151943129Y-115708507D01*
X152560614Y-115452736D01*
X152731837Y-115192442D01*
X151511000Y-113971605D01*
X150290163Y-115192442D01*
X146341837Y-115192442D01*
X145756000Y-114606605D01*
X145069240Y-115293365D01*
X144780000Y-115293365D01*
X144780000Y-115065491D01*
X144889635Y-115113760D01*
X145576395Y-114427000D01*
X145935605Y-114427000D01*
X146622365Y-115113760D01*
X146806018Y-115032903D01*
X146957959Y-114584957D01*
X146926913Y-114112963D01*
X146806018Y-113821097D01*
X146622365Y-113740240D01*
X145935605Y-114427000D01*
X145576395Y-114427000D01*
X145562253Y-114412858D01*
X145741858Y-114233253D01*
X145756000Y-114247395D01*
X146442760Y-113560635D01*
X146397494Y-113457819D01*
X149575010Y-113457819D01*
X149594493Y-114224129D01*
X149850264Y-114841614D01*
X150110558Y-115012837D01*
X151331395Y-113792000D01*
X151690605Y-113792000D01*
X152911442Y-115012837D01*
X153171736Y-114841614D01*
X153446990Y-114126181D01*
X153427507Y-113359871D01*
X153171736Y-112742386D01*
X152911442Y-112571163D01*
X151690605Y-113792000D01*
X151331395Y-113792000D01*
X150110558Y-112571163D01*
X149850264Y-112742386D01*
X149575010Y-113457819D01*
X146397494Y-113457819D01*
X146376880Y-113411000D01*
X148463000Y-113411000D01*
X148512410Y-113400994D01*
X148552803Y-113373803D01*
X150039606Y-111887000D01*
X151051091Y-111887000D01*
X150461386Y-112131264D01*
G36*
X135596000Y-110702250D02*
X135702750Y-110809000D01*
X136275000Y-110809000D01*
X136275000Y-110789000D01*
X136521000Y-110789000D01*
X136521000Y-110809000D01*
X137093250Y-110809000D01*
X137200000Y-110702250D01*
X137200000Y-110490000D01*
X139662132Y-110490000D01*
X141024000Y-111851868D01*
X141024000Y-112938132D01*
X140931944Y-113030188D01*
X140439339Y-113029758D01*
X139925697Y-113241990D01*
X139532371Y-113634630D01*
X139319243Y-114147900D01*
X139318758Y-114703661D01*
X139530990Y-115217303D01*
X139923630Y-115610629D01*
X140436900Y-115823757D01*
X140992661Y-115824242D01*
X141506303Y-115612010D01*
X141828016Y-115290858D01*
X142566090Y-115290858D01*
X142646618Y-115475003D01*
X143094058Y-115628429D01*
X143566152Y-115598948D01*
X143865382Y-115475003D01*
X143945910Y-115290858D01*
X143256000Y-114600948D01*
X142566090Y-115290858D01*
X141828016Y-115290858D01*
X141899629Y-115219370D01*
X142091948Y-114756214D01*
X142207997Y-115036382D01*
X142392142Y-115116910D01*
X143082052Y-114427000D01*
X143067910Y-114412858D01*
X143241858Y-114238910D01*
X143256000Y-114253052D01*
X143270143Y-114238910D01*
X143444091Y-114412858D01*
X143429948Y-114427000D01*
X144119858Y-115116910D01*
X144145000Y-115105915D01*
X144145000Y-115901000D01*
X130987000Y-115901000D01*
X130987000Y-115316804D01*
X132126144Y-115316804D01*
X132297000Y-115577590D01*
X133011870Y-115854303D01*
X133778217Y-115836384D01*
X134403000Y-115577590D01*
X134573856Y-115316804D01*
X133350000Y-114092948D01*
X132126144Y-115316804D01*
X130987000Y-115316804D01*
X130987000Y-113580870D01*
X131414697Y-113580870D01*
X131432616Y-114347217D01*
X131691410Y-114972000D01*
X131952196Y-115142856D01*
X133176052Y-113919000D01*
X133523948Y-113919000D01*
X134747804Y-115142856D01*
X135008590Y-114972000D01*
X135285303Y-114257130D01*
X135267384Y-113490783D01*
X135008590Y-112866000D01*
X134747804Y-112695144D01*
X133523948Y-113919000D01*
X133176052Y-113919000D01*
X131952196Y-112695144D01*
X131691410Y-112866000D01*
X131414697Y-113580870D01*
X130987000Y-113580870D01*
X130987000Y-112141000D01*
X132585281Y-112141000D01*
X132297000Y-112260410D01*
X132126144Y-112521196D01*
X133350000Y-113745052D01*
X134573856Y-112521196D01*
X134403000Y-112260410D01*
X133778809Y-112018797D01*
X134635856Y-111161750D01*
X135596000Y-111161750D01*
X135596000Y-111616935D01*
X135661007Y-111773876D01*
X135781124Y-111893993D01*
X135938064Y-111959000D01*
X136168250Y-111959000D01*
X136275000Y-111852250D01*
X136275000Y-111055000D01*
X136521000Y-111055000D01*
X136521000Y-111852250D01*
X136627750Y-111959000D01*
X136857936Y-111959000D01*
X137014876Y-111893993D01*
X137134993Y-111773876D01*
X137200000Y-111616935D01*
X137200000Y-111161750D01*
X137093250Y-111055000D01*
X136521000Y-111055000D01*
X136275000Y-111055000D01*
X135702750Y-111055000D01*
X135596000Y-111161750D01*
X134635856Y-111161750D01*
X135307606Y-110490000D01*
X135596000Y-110490000D01*
X135596000Y-110702250D01*
X135596000Y-110702250D01*
G37*
X135596000Y-110702250D02*
X135702750Y-110809000D01*
X136275000Y-110809000D01*
X136275000Y-110789000D01*
X136521000Y-110789000D01*
X136521000Y-110809000D01*
X137093250Y-110809000D01*
X137200000Y-110702250D01*
X137200000Y-110490000D01*
X139662132Y-110490000D01*
X141024000Y-111851868D01*
X141024000Y-112938132D01*
X140931944Y-113030188D01*
X140439339Y-113029758D01*
X139925697Y-113241990D01*
X139532371Y-113634630D01*
X139319243Y-114147900D01*
X139318758Y-114703661D01*
X139530990Y-115217303D01*
X139923630Y-115610629D01*
X140436900Y-115823757D01*
X140992661Y-115824242D01*
X141506303Y-115612010D01*
X141828016Y-115290858D01*
X142566090Y-115290858D01*
X142646618Y-115475003D01*
X143094058Y-115628429D01*
X143566152Y-115598948D01*
X143865382Y-115475003D01*
X143945910Y-115290858D01*
X143256000Y-114600948D01*
X142566090Y-115290858D01*
X141828016Y-115290858D01*
X141899629Y-115219370D01*
X142091948Y-114756214D01*
X142207997Y-115036382D01*
X142392142Y-115116910D01*
X143082052Y-114427000D01*
X143067910Y-114412858D01*
X143241858Y-114238910D01*
X143256000Y-114253052D01*
X143270143Y-114238910D01*
X143444091Y-114412858D01*
X143429948Y-114427000D01*
X144119858Y-115116910D01*
X144145000Y-115105915D01*
X144145000Y-115901000D01*
X130987000Y-115901000D01*
X130987000Y-115316804D01*
X132126144Y-115316804D01*
X132297000Y-115577590D01*
X133011870Y-115854303D01*
X133778217Y-115836384D01*
X134403000Y-115577590D01*
X134573856Y-115316804D01*
X133350000Y-114092948D01*
X132126144Y-115316804D01*
X130987000Y-115316804D01*
X130987000Y-113580870D01*
X131414697Y-113580870D01*
X131432616Y-114347217D01*
X131691410Y-114972000D01*
X131952196Y-115142856D01*
X133176052Y-113919000D01*
X133523948Y-113919000D01*
X134747804Y-115142856D01*
X135008590Y-114972000D01*
X135285303Y-114257130D01*
X135267384Y-113490783D01*
X135008590Y-112866000D01*
X134747804Y-112695144D01*
X133523948Y-113919000D01*
X133176052Y-113919000D01*
X131952196Y-112695144D01*
X131691410Y-112866000D01*
X131414697Y-113580870D01*
X130987000Y-113580870D01*
X130987000Y-112141000D01*
X132585281Y-112141000D01*
X132297000Y-112260410D01*
X132126144Y-112521196D01*
X133350000Y-113745052D01*
X134573856Y-112521196D01*
X134403000Y-112260410D01*
X133778809Y-112018797D01*
X134635856Y-111161750D01*
X135596000Y-111161750D01*
X135596000Y-111616935D01*
X135661007Y-111773876D01*
X135781124Y-111893993D01*
X135938064Y-111959000D01*
X136168250Y-111959000D01*
X136275000Y-111852250D01*
X136275000Y-111055000D01*
X136521000Y-111055000D01*
X136521000Y-111852250D01*
X136627750Y-111959000D01*
X136857936Y-111959000D01*
X137014876Y-111893993D01*
X137134993Y-111773876D01*
X137200000Y-111616935D01*
X137200000Y-111161750D01*
X137093250Y-111055000D01*
X136521000Y-111055000D01*
X136275000Y-111055000D01*
X135702750Y-111055000D01*
X135596000Y-111161750D01*
X134635856Y-111161750D01*
X135307606Y-110490000D01*
X135596000Y-110490000D01*
X135596000Y-110702250D01*
M02*
