G04 #@! TF.FileFunction,Soldermask,Bot*
%FSLAX46Y46*%
G04 Gerber Fmt 4.6, Leading zero omitted, Abs format (unit mm)*
G04 Created by KiCad (PCBNEW 4.0.4-stable) date 11/08/16 21:01:40*
%MOMM*%
%LPD*%
G01*
G04 APERTURE LIST*
%ADD10C,0.100000*%
%ADD11R,1.200000X0.750000*%
%ADD12R,1.550000X0.600000*%
%ADD13R,0.450000X1.450000*%
%ADD14R,0.750000X1.200000*%
%ADD15R,1.200000X0.900000*%
%ADD16R,0.900000X1.200000*%
%ADD17C,1.524000*%
%ADD18R,0.508000X0.304800*%
%ADD19R,0.800100X0.800100*%
G04 APERTURE END LIST*
D10*
D11*
X133284000Y-90170000D03*
X131384000Y-90170000D03*
D12*
X141986000Y-86487000D03*
X141986000Y-87757000D03*
X141986000Y-89027000D03*
X141986000Y-90297000D03*
X136586000Y-90297000D03*
X136586000Y-89027000D03*
X136586000Y-87757000D03*
X136586000Y-86487000D03*
D13*
X141728000Y-98015000D03*
X142378000Y-98015000D03*
X143028000Y-98015000D03*
X143678000Y-98015000D03*
X144328000Y-98015000D03*
X144978000Y-98015000D03*
X145628000Y-98015000D03*
X146278000Y-98015000D03*
X146928000Y-98015000D03*
X147578000Y-98015000D03*
X147578000Y-103915000D03*
X146928000Y-103915000D03*
X146278000Y-103915000D03*
X145628000Y-103915000D03*
X144978000Y-103915000D03*
X144328000Y-103915000D03*
X143678000Y-103915000D03*
X143028000Y-103915000D03*
X142378000Y-103915000D03*
X141728000Y-103915000D03*
D11*
X140401000Y-106045000D03*
X142301000Y-106045000D03*
X142433000Y-110744000D03*
X144333000Y-110744000D03*
X140909000Y-92583000D03*
X142809000Y-92583000D03*
X146751000Y-95885000D03*
X148651000Y-95885000D03*
X140401000Y-109220000D03*
X142301000Y-109220000D03*
X144333000Y-107696000D03*
X142433000Y-107696000D03*
X140909000Y-95631000D03*
X142809000Y-95631000D03*
X141925000Y-94107000D03*
X143825000Y-94107000D03*
X146751000Y-94361000D03*
X148651000Y-94361000D03*
D14*
X140081000Y-98745000D03*
X140081000Y-100645000D03*
D11*
X138369000Y-84709000D03*
X140269000Y-84709000D03*
D15*
X148801000Y-91059000D03*
X146601000Y-91059000D03*
X148801000Y-92583000D03*
X146601000Y-92583000D03*
X148801000Y-89535000D03*
X146601000Y-89535000D03*
D16*
X153416000Y-92032000D03*
X153416000Y-89832000D03*
X153416000Y-97620000D03*
X153416000Y-95420000D03*
D15*
X151468000Y-106680000D03*
X149268000Y-106680000D03*
D16*
X144018000Y-87546000D03*
X144018000Y-89746000D03*
D15*
X133434000Y-96012000D03*
X131234000Y-96012000D03*
X133688000Y-104648000D03*
X131488000Y-104648000D03*
X133604000Y-102870000D03*
X131404000Y-102870000D03*
X131318000Y-97790000D03*
X133518000Y-97790000D03*
X131234000Y-91948000D03*
X133434000Y-91948000D03*
D17*
X145756000Y-114427000D03*
X143256000Y-114427000D03*
X140716000Y-114427000D03*
D18*
X131318000Y-88392000D03*
X131318000Y-87122000D03*
X133350000Y-88392000D03*
X131318000Y-87757000D03*
X133350000Y-87122000D03*
D19*
X133842760Y-106238000D03*
X133842760Y-108138000D03*
X131843780Y-107188000D03*
X133792000Y-101330760D03*
X131892000Y-101330760D03*
X132842000Y-99331780D03*
D17*
X135890000Y-99822000D03*
X149098000Y-108966000D03*
X146812000Y-108966000D03*
X148336000Y-110998000D03*
X146304000Y-110998000D03*
M02*
