G04 #@! TF.FileFunction,Copper,L2,Bot,Signal*
%FSLAX46Y46*%
G04 Gerber Fmt 4.6, Leading zero omitted, Abs format (unit mm)*
G04 Created by KiCad (PCBNEW 4.0.4-stable) date 11/08/16 21:01:40*
%MOMM*%
%LPD*%
G01*
G04 APERTURE LIST*
%ADD10C,0.100000*%
%ADD11R,1.200000X0.750000*%
%ADD12R,1.550000X0.600000*%
%ADD13R,0.450000X1.450000*%
%ADD14R,0.750000X1.200000*%
%ADD15R,1.200000X0.900000*%
%ADD16R,0.900000X1.200000*%
%ADD17C,1.524000*%
%ADD18R,0.508000X0.304800*%
%ADD19R,0.800100X0.800100*%
%ADD20C,0.600000*%
%ADD21C,0.200000*%
%ADD22C,0.250000*%
%ADD23C,0.254000*%
G04 APERTURE END LIST*
D10*
D11*
X133284000Y-90170000D03*
X131384000Y-90170000D03*
D12*
X141986000Y-86487000D03*
X141986000Y-87757000D03*
X141986000Y-89027000D03*
X141986000Y-90297000D03*
X136586000Y-90297000D03*
X136586000Y-89027000D03*
X136586000Y-87757000D03*
X136586000Y-86487000D03*
D13*
X141728000Y-98015000D03*
X142378000Y-98015000D03*
X143028000Y-98015000D03*
X143678000Y-98015000D03*
X144328000Y-98015000D03*
X144978000Y-98015000D03*
X145628000Y-98015000D03*
X146278000Y-98015000D03*
X146928000Y-98015000D03*
X147578000Y-98015000D03*
X147578000Y-103915000D03*
X146928000Y-103915000D03*
X146278000Y-103915000D03*
X145628000Y-103915000D03*
X144978000Y-103915000D03*
X144328000Y-103915000D03*
X143678000Y-103915000D03*
X143028000Y-103915000D03*
X142378000Y-103915000D03*
X141728000Y-103915000D03*
D11*
X140401000Y-106045000D03*
X142301000Y-106045000D03*
X142433000Y-110744000D03*
X144333000Y-110744000D03*
X140909000Y-92583000D03*
X142809000Y-92583000D03*
X146751000Y-95885000D03*
X148651000Y-95885000D03*
X140401000Y-109220000D03*
X142301000Y-109220000D03*
X144333000Y-107696000D03*
X142433000Y-107696000D03*
X140909000Y-95631000D03*
X142809000Y-95631000D03*
X141925000Y-94107000D03*
X143825000Y-94107000D03*
X146751000Y-94361000D03*
X148651000Y-94361000D03*
D14*
X140081000Y-98745000D03*
X140081000Y-100645000D03*
D11*
X138369000Y-84709000D03*
X140269000Y-84709000D03*
D15*
X148801000Y-91059000D03*
X146601000Y-91059000D03*
X148801000Y-92583000D03*
X146601000Y-92583000D03*
X148801000Y-89535000D03*
X146601000Y-89535000D03*
D16*
X153416000Y-92032000D03*
X153416000Y-89832000D03*
X153416000Y-97620000D03*
X153416000Y-95420000D03*
D15*
X151468000Y-106680000D03*
X149268000Y-106680000D03*
D16*
X144018000Y-87546000D03*
X144018000Y-89746000D03*
D15*
X133434000Y-96012000D03*
X131234000Y-96012000D03*
X133688000Y-104648000D03*
X131488000Y-104648000D03*
X133604000Y-102870000D03*
X131404000Y-102870000D03*
X131318000Y-97790000D03*
X133518000Y-97790000D03*
X131234000Y-91948000D03*
X133434000Y-91948000D03*
D17*
X145756000Y-114427000D03*
X143256000Y-114427000D03*
X140716000Y-114427000D03*
D18*
X131318000Y-88392000D03*
X131318000Y-87122000D03*
X133350000Y-88392000D03*
X131318000Y-87757000D03*
X133350000Y-87122000D03*
D19*
X133842760Y-106238000D03*
X133842760Y-108138000D03*
X131843780Y-107188000D03*
X133792000Y-101330760D03*
X131892000Y-101330760D03*
X132842000Y-99331780D03*
D17*
X135890000Y-99822000D03*
X149098000Y-108966000D03*
X146812000Y-108966000D03*
X148336000Y-110998000D03*
X146304000Y-110998000D03*
D20*
X146685000Y-93533002D03*
X140462000Y-97155000D03*
X151511000Y-107569000D03*
X137795000Y-109220000D03*
X135255000Y-87757000D03*
X132334000Y-94742000D03*
X143256000Y-113157000D03*
X143256000Y-115697000D03*
X142367000Y-115316000D03*
X135001000Y-112268000D03*
X135001000Y-115443000D03*
X135509000Y-113919000D03*
X135586242Y-83996411D03*
X146558000Y-83312000D03*
X131479757Y-99568000D03*
X137795000Y-110744000D03*
X149860000Y-105174000D03*
X140970000Y-103632000D03*
X149860000Y-109982000D03*
X144907000Y-87630000D03*
X147701000Y-93472000D03*
X148717000Y-97155000D03*
X137922000Y-101854000D03*
X137888105Y-103939679D03*
X137922000Y-99822000D03*
X145003000Y-105156000D03*
X134366000Y-87757000D03*
X145669000Y-102743000D03*
X153416000Y-88519000D03*
X153924000Y-94107000D03*
X134620000Y-96012000D03*
X132588000Y-103759000D03*
X133604000Y-92964000D03*
X149860000Y-83439000D03*
X147066000Y-112014000D03*
X136525000Y-84963000D03*
D21*
X133350000Y-88392000D02*
X134620000Y-88392000D01*
X134620000Y-88392000D02*
X135255000Y-87757000D01*
X146685000Y-93533002D02*
X146685000Y-94295000D01*
X146685000Y-94295000D02*
X146751000Y-94361000D01*
D22*
X140462000Y-97155000D02*
X140462000Y-96078000D01*
X140462000Y-96078000D02*
X140909000Y-95631000D01*
X151511000Y-107569000D02*
X151511000Y-106723000D01*
X151511000Y-106723000D02*
X151468000Y-106680000D01*
X140401000Y-109220000D02*
X137795000Y-109220000D01*
X136586000Y-87757000D02*
X135255000Y-87757000D01*
X136586000Y-86487000D02*
X136586000Y-87757000D01*
X138369000Y-84709000D02*
X137814000Y-84709000D01*
X137814000Y-84709000D02*
X136586000Y-85937000D01*
X136586000Y-85937000D02*
X136586000Y-86487000D01*
X132334000Y-94742000D02*
X131804000Y-94742000D01*
X131804000Y-94742000D02*
X131234000Y-95312000D01*
X131234000Y-96012000D02*
X131234000Y-97706000D01*
X131234000Y-97706000D02*
X131318000Y-97790000D01*
X131234000Y-96012000D02*
X131234000Y-95312000D01*
X131234000Y-95312000D02*
X131234000Y-91948000D01*
X133284000Y-90170000D02*
X133059000Y-90170000D01*
X133059000Y-90170000D02*
X131281000Y-91948000D01*
X131281000Y-91948000D02*
X131234000Y-91948000D01*
X140401000Y-106045000D02*
X140401000Y-109220000D01*
X146751000Y-95885000D02*
X146278000Y-96358000D01*
X146278000Y-96358000D02*
X146278000Y-98015000D01*
X146751000Y-94361000D02*
X146751000Y-95885000D01*
X140909000Y-95631000D02*
X140909000Y-92583000D01*
X141728000Y-98015000D02*
X141728000Y-96450000D01*
X141728000Y-96450000D02*
X140909000Y-95631000D01*
X141728000Y-103915000D02*
X141728000Y-104718000D01*
X141728000Y-104718000D02*
X140401000Y-106045000D01*
D21*
X143256000Y-113157000D02*
X143256000Y-111342000D01*
X143256000Y-114427000D02*
X143256000Y-113157000D01*
X141940001Y-115742999D02*
X142367000Y-115316000D01*
X143256000Y-114427000D02*
X142367000Y-115316000D01*
X134442810Y-108138000D02*
X134874000Y-108569190D01*
X134874000Y-108569190D02*
X137048810Y-110744000D01*
X135001000Y-112268000D02*
X135300999Y-111968001D01*
X135300999Y-108996189D02*
X134874000Y-108569190D01*
X135300999Y-111968001D02*
X135300999Y-108996189D01*
X135001000Y-115443000D02*
X135300999Y-115742999D01*
X135300999Y-115742999D02*
X141940001Y-115742999D01*
X135509000Y-113919000D02*
X137795000Y-111633000D01*
X137795000Y-111633000D02*
X137795000Y-110744000D01*
X143256000Y-111342000D02*
X142658000Y-110744000D01*
X142658000Y-110744000D02*
X142433000Y-110744000D01*
D22*
X131318000Y-87122000D02*
X131322564Y-87122000D01*
X131322564Y-87122000D02*
X134116564Y-84328000D01*
X134116564Y-84328000D02*
X135254653Y-84328000D01*
X131384000Y-90170000D02*
X131318000Y-90170000D01*
X131318000Y-90170000D02*
X130738999Y-89590999D01*
X130738999Y-89590999D02*
X130738999Y-87197001D01*
X130738999Y-87197001D02*
X130814000Y-87122000D01*
X130814000Y-87122000D02*
X131318000Y-87122000D01*
D21*
X135586242Y-83996411D02*
X140131411Y-83996411D01*
X140131411Y-83996411D02*
X140269000Y-84134000D01*
X140269000Y-84134000D02*
X140269000Y-84709000D01*
D22*
X135251000Y-84328000D02*
X135254653Y-84328000D01*
X135254653Y-84328000D02*
X135586242Y-83996411D01*
X148350991Y-85962599D02*
X148350991Y-85104991D01*
X148350991Y-85104991D02*
X146558000Y-83312000D01*
D21*
X153416000Y-92032000D02*
X153416000Y-93726998D01*
X153416000Y-93726998D02*
X152371000Y-94771998D01*
X152371000Y-94771998D02*
X152371000Y-98015000D01*
X153416000Y-97620000D02*
X152766000Y-97620000D01*
X152766000Y-97620000D02*
X152371000Y-98015000D01*
X152371000Y-98015000D02*
X147578000Y-98015000D01*
D22*
X140025570Y-102177789D02*
X139358302Y-101510521D01*
X139358302Y-101510521D02*
X139358303Y-96992930D01*
X139907033Y-96444200D02*
X139907033Y-91899501D01*
X139358303Y-96992930D02*
X139907033Y-96444200D01*
X139907033Y-91899501D02*
X140620534Y-91186000D01*
X140620534Y-91186000D02*
X142116924Y-91186000D01*
X140025570Y-102177789D02*
X140025570Y-102727216D01*
X138188106Y-104564680D02*
X137588104Y-104564680D01*
X140025570Y-102727216D02*
X138188106Y-104564680D01*
X137588104Y-104564680D02*
X135844841Y-102821417D01*
X132183767Y-100272010D02*
X131479757Y-99568000D01*
X135844841Y-102821417D02*
X135844841Y-101998499D01*
X135844841Y-101998499D02*
X134118352Y-100272010D01*
X134118352Y-100272010D02*
X132183767Y-100272010D01*
D21*
X131479757Y-99568000D02*
X131479757Y-100918517D01*
X131479757Y-100918517D02*
X131892000Y-101330760D01*
X138649002Y-109889998D02*
X139480002Y-109889998D01*
X137795000Y-110744000D02*
X138649002Y-109889998D01*
X140334004Y-110744000D02*
X142433000Y-110744000D01*
X139480002Y-109889998D02*
X140334004Y-110744000D01*
X137795000Y-110744000D02*
X137048810Y-110744000D01*
X133842760Y-108138000D02*
X134442810Y-108138000D01*
D22*
X146601000Y-89535000D02*
X146601000Y-88398998D01*
X146601000Y-88398998D02*
X142911002Y-84709000D01*
X142911002Y-84709000D02*
X140269000Y-84709000D01*
X144018000Y-89746000D02*
X144718000Y-89746000D01*
X144718000Y-89746000D02*
X145142000Y-90170000D01*
X145142000Y-90170000D02*
X145288000Y-90170000D01*
X142116924Y-91186000D02*
X141986000Y-91055076D01*
X141986000Y-91055076D02*
X141986000Y-90297000D01*
X149860000Y-105174000D02*
X148337000Y-105174000D01*
X148337000Y-105174000D02*
X147578000Y-104415000D01*
X147578000Y-104415000D02*
X147578000Y-103915000D01*
X146928000Y-103915000D02*
X146928000Y-100838000D01*
X145542000Y-100965000D02*
X146801000Y-100965000D01*
X146928000Y-100838000D02*
X146928000Y-98015000D01*
X146801000Y-100965000D02*
X146928000Y-100838000D01*
X142811500Y-102171500D02*
X140031859Y-102171500D01*
X140031859Y-102171500D02*
X140025570Y-102177789D01*
X142809000Y-91878076D02*
X142809000Y-92583000D01*
X142116924Y-91186000D02*
X142809000Y-91878076D01*
X146601000Y-89535000D02*
X146751000Y-89535000D01*
X146751000Y-89535000D02*
X148350990Y-87935010D01*
X148350990Y-87935010D02*
X148350991Y-85962599D01*
X142433000Y-107696000D02*
X142433000Y-106177000D01*
X142433000Y-106177000D02*
X142301000Y-106045000D01*
X142301000Y-109220000D02*
X142301000Y-107828000D01*
X142301000Y-107828000D02*
X142433000Y-107696000D01*
X142433000Y-110744000D02*
X142433000Y-109352000D01*
X142433000Y-109352000D02*
X142301000Y-109220000D01*
X142378000Y-103915000D02*
X142378000Y-102605000D01*
X144018000Y-100965000D02*
X145542000Y-100965000D01*
X142378000Y-102605000D02*
X142811500Y-102171500D01*
X142811500Y-102171500D02*
X144018000Y-100965000D01*
X144328000Y-103915000D02*
X144328000Y-102179000D01*
X144328000Y-102179000D02*
X145542000Y-100965000D01*
X147578000Y-103915000D02*
X147578000Y-98015000D01*
X146928000Y-103915000D02*
X147578000Y-103915000D01*
X148651000Y-95885000D02*
X148651000Y-94361000D01*
X147578000Y-98015000D02*
X146928000Y-98015000D01*
X148651000Y-95885000D02*
X147578000Y-96958000D01*
X147578000Y-96958000D02*
X147578000Y-98015000D01*
X146601000Y-89535000D02*
X145923000Y-89535000D01*
X145923000Y-89535000D02*
X145288000Y-90170000D01*
X145288000Y-90170000D02*
X145288000Y-91694000D01*
X145288000Y-91694000D02*
X144399000Y-92583000D01*
X144399000Y-92583000D02*
X142809000Y-92583000D01*
X143028000Y-98015000D02*
X143028000Y-95850000D01*
X143028000Y-95850000D02*
X142809000Y-95631000D01*
X141925000Y-94107000D02*
X141925000Y-94747000D01*
X141925000Y-94747000D02*
X142809000Y-95631000D01*
X142809000Y-92583000D02*
X142809000Y-93223000D01*
X142809000Y-93223000D02*
X141925000Y-94107000D01*
X142378000Y-103915000D02*
X142378000Y-105968000D01*
X142378000Y-105968000D02*
X142301000Y-106045000D01*
X142809000Y-95631000D02*
X143028000Y-95850000D01*
X144333000Y-110744000D02*
X144333000Y-107696000D01*
X144333000Y-106487000D02*
X144333000Y-107696000D01*
X143028000Y-103915000D02*
X143028000Y-105182000D01*
X143028000Y-105182000D02*
X144333000Y-106487000D01*
X144328000Y-98015000D02*
X144328000Y-97084000D01*
X143825000Y-96581000D02*
X143825000Y-94107000D01*
X144328000Y-97084000D02*
X143825000Y-96581000D01*
X142378000Y-98015000D02*
X142378000Y-99176000D01*
X140777000Y-99441000D02*
X140081000Y-98745000D01*
X142113000Y-99441000D02*
X140777000Y-99441000D01*
X142378000Y-99176000D02*
X142113000Y-99441000D01*
X143678000Y-98015000D02*
X143678000Y-98931795D01*
X143678000Y-98931795D02*
X141964795Y-100645000D01*
X141964795Y-100645000D02*
X140081000Y-100645000D01*
X144978000Y-98015000D02*
X144978000Y-92682000D01*
X144978000Y-92682000D02*
X146601000Y-91059000D01*
X145628000Y-98015000D02*
X145628000Y-93556000D01*
X145628000Y-93556000D02*
X146601000Y-92583000D01*
X146278000Y-105760770D02*
X147197230Y-106680000D01*
X147197230Y-106680000D02*
X148405010Y-107887780D01*
D21*
X149268000Y-106680000D02*
X147197230Y-106680000D01*
D22*
X140970000Y-103915998D02*
X140970000Y-103632000D01*
X131843780Y-107188000D02*
X137697998Y-107188000D01*
X137697998Y-107188000D02*
X140970000Y-103915998D01*
X149098000Y-108966000D02*
X149098000Y-109220000D01*
X149098000Y-109220000D02*
X149860000Y-109982000D01*
X146278000Y-103915000D02*
X146278000Y-105760770D01*
X148405010Y-107887780D02*
X148405010Y-108273010D01*
X148405010Y-108273010D02*
X149098000Y-108966000D01*
X144907000Y-87630000D02*
X144102000Y-87630000D01*
X144102000Y-87630000D02*
X144018000Y-87546000D01*
X147762999Y-93660999D02*
X147701000Y-93599000D01*
X147701000Y-93599000D02*
X147701000Y-93472000D01*
X149987000Y-94107000D02*
X149540999Y-93660999D01*
X149540999Y-93660999D02*
X147762999Y-93660999D01*
X149987000Y-96647000D02*
X149987000Y-94107000D01*
X149479000Y-97155000D02*
X149987000Y-96647000D01*
X148717000Y-97155000D02*
X149479000Y-97155000D01*
X144018000Y-87546000D02*
X142959000Y-86487000D01*
X142959000Y-86487000D02*
X141986000Y-86487000D01*
X139457022Y-89810978D02*
X141511000Y-87757000D01*
X139457022Y-96257800D02*
X139457022Y-89810978D01*
X138908292Y-100867708D02*
X138908293Y-96806529D01*
X137922000Y-101854000D02*
X138908292Y-100867708D01*
X141511000Y-87757000D02*
X141986000Y-87757000D01*
X138908293Y-96806529D02*
X139457022Y-96257800D01*
X137293000Y-103344574D02*
X137293000Y-97149000D01*
X138557000Y-95885000D02*
X138557000Y-91731044D01*
X137061000Y-90297000D02*
X136586000Y-90297000D01*
X137888105Y-103939679D02*
X137293000Y-103344574D01*
X137293000Y-97149000D02*
X138557000Y-95885000D01*
X138557000Y-91731044D02*
X137122956Y-90297000D01*
X137122956Y-90297000D02*
X137061000Y-90297000D01*
X137922000Y-97156411D02*
X139007011Y-96071400D01*
X137922000Y-99822000D02*
X137922000Y-97156411D01*
X139007011Y-90973011D02*
X137061000Y-89027000D01*
X137061000Y-89027000D02*
X136586000Y-89027000D01*
X139007011Y-96071400D02*
X139007011Y-90973011D01*
X144978000Y-105733590D02*
X145003000Y-105708590D01*
X145003000Y-105708590D02*
X145003000Y-105156000D01*
X144978000Y-103915000D02*
X144978000Y-105733590D01*
X144978000Y-105733590D02*
X146812000Y-107567590D01*
X146812000Y-107567590D02*
X146812000Y-108966000D01*
D21*
X133350000Y-87122000D02*
X133731000Y-87122000D01*
X133731000Y-87122000D02*
X134366000Y-87757000D01*
D22*
X145628000Y-103915000D02*
X145628000Y-102784000D01*
X145628000Y-102784000D02*
X145669000Y-102743000D01*
X148336000Y-110998000D02*
X148336000Y-111252000D01*
X145628000Y-103915000D02*
X145628000Y-105747180D01*
X147955000Y-109539370D02*
X148336000Y-109920370D01*
X145628000Y-105747180D02*
X147955000Y-108074180D01*
X147955000Y-108074180D02*
X147955000Y-109539370D01*
X148336000Y-109920370D02*
X148336000Y-110998000D01*
D21*
X153416000Y-89832000D02*
X153416000Y-88519000D01*
X153416000Y-94615000D02*
X153416000Y-95420000D01*
X153924000Y-94107000D02*
X153416000Y-94615000D01*
D22*
X133434000Y-96012000D02*
X134620000Y-96012000D01*
X132588000Y-103759000D02*
X132377000Y-103759000D01*
X132377000Y-103759000D02*
X131488000Y-104648000D01*
X131488000Y-104648000D02*
X131488000Y-102954000D01*
X131488000Y-102954000D02*
X131404000Y-102870000D01*
X134008315Y-89115944D02*
X132545944Y-89115944D01*
X132545944Y-89115944D02*
X131822000Y-88392000D01*
X131822000Y-88392000D02*
X131318000Y-88392000D01*
X134008315Y-89115944D02*
X134527966Y-89635595D01*
X134527966Y-89635595D02*
X134527966Y-92086568D01*
X134527966Y-92086568D02*
X136460420Y-94019022D01*
X136460420Y-94019022D02*
X136460420Y-97186501D01*
X136460420Y-97186501D02*
X135856921Y-97790000D01*
X135856921Y-97790000D02*
X133518000Y-97790000D01*
X135890000Y-99822000D02*
X133332220Y-99822000D01*
X133332220Y-99822000D02*
X132842000Y-99331780D01*
X132842000Y-99331780D02*
X132842000Y-98466000D01*
X132842000Y-98466000D02*
X133518000Y-97790000D01*
X133434000Y-91948000D02*
X133434000Y-92794000D01*
X133434000Y-92794000D02*
X133604000Y-92964000D01*
X133842760Y-106238000D02*
X133842760Y-104802760D01*
X133842760Y-104802760D02*
X133688000Y-104648000D01*
X133604000Y-102870000D02*
X133604000Y-101518760D01*
X133604000Y-101518760D02*
X133792000Y-101330760D01*
X148801000Y-84498000D02*
X149860000Y-83439000D01*
X148801000Y-89535000D02*
X148801000Y-84498000D01*
X148801000Y-91059000D02*
X148801000Y-89535000D01*
X148801000Y-92583000D02*
X148801000Y-91059000D01*
X146304000Y-110998000D02*
X146304000Y-111252000D01*
X146304000Y-111252000D02*
X147066000Y-112014000D01*
X143678000Y-103915000D02*
X143678000Y-105070000D01*
X145542000Y-110236000D02*
X146304000Y-110998000D01*
X145542000Y-106934000D02*
X145542000Y-110236000D01*
X143678000Y-105070000D02*
X145542000Y-106934000D01*
D21*
X131318000Y-87757000D02*
X131772000Y-87757000D01*
X131772000Y-87757000D02*
X134566000Y-84963000D01*
X134566000Y-84963000D02*
X135263948Y-84963000D01*
X135263948Y-84963000D02*
X136525000Y-84963000D01*
D23*
G36*
X153747000Y-87644040D02*
X153602799Y-87584162D01*
X153230833Y-87583838D01*
X152887057Y-87725883D01*
X152623808Y-87988673D01*
X152481162Y-88332201D01*
X152480838Y-88704167D01*
X152509958Y-88774643D01*
X152369569Y-88980110D01*
X152318560Y-89232000D01*
X152318560Y-90432000D01*
X152362838Y-90667317D01*
X152501910Y-90883441D01*
X152714110Y-91028431D01*
X152788250Y-91043445D01*
X152724124Y-91070007D01*
X152604007Y-91190124D01*
X152539000Y-91347065D01*
X152539000Y-91802250D01*
X152645750Y-91909000D01*
X153293000Y-91909000D01*
X153293000Y-91889000D01*
X153539000Y-91889000D01*
X153539000Y-91909000D01*
X153559000Y-91909000D01*
X153559000Y-92155000D01*
X153539000Y-92155000D01*
X153539000Y-92952250D01*
X153645750Y-93059000D01*
X153747000Y-93059000D01*
X153747000Y-93171845D01*
X153738833Y-93171838D01*
X153395057Y-93313883D01*
X153131808Y-93576673D01*
X152989162Y-93920201D01*
X152989090Y-94002463D01*
X152896277Y-94095277D01*
X152827185Y-94198680D01*
X152730683Y-94216838D01*
X152514559Y-94355910D01*
X152369569Y-94568110D01*
X152318560Y-94820000D01*
X152318560Y-96020000D01*
X152362838Y-96255317D01*
X152501910Y-96471441D01*
X152714110Y-96616431D01*
X152788250Y-96631445D01*
X152724124Y-96658007D01*
X152604007Y-96778124D01*
X152539000Y-96935065D01*
X152539000Y-97390250D01*
X152645750Y-97497000D01*
X153293000Y-97497000D01*
X153293000Y-97477000D01*
X153539000Y-97477000D01*
X153539000Y-97497000D01*
X153559000Y-97497000D01*
X153559000Y-97743000D01*
X153539000Y-97743000D01*
X153539000Y-98540250D01*
X153645750Y-98647000D01*
X153747000Y-98647000D01*
X153747000Y-115901000D01*
X130987000Y-115901000D01*
X130987000Y-114703661D01*
X139318758Y-114703661D01*
X139530990Y-115217303D01*
X139923630Y-115610629D01*
X140436900Y-115823757D01*
X140992661Y-115824242D01*
X141506303Y-115612010D01*
X141828016Y-115290858D01*
X142566090Y-115290858D01*
X142646618Y-115475003D01*
X143094058Y-115628429D01*
X143566152Y-115598948D01*
X143865382Y-115475003D01*
X143945910Y-115290858D01*
X143256000Y-114600948D01*
X142566090Y-115290858D01*
X141828016Y-115290858D01*
X141899629Y-115219370D01*
X142091948Y-114756214D01*
X142207997Y-115036382D01*
X142392142Y-115116910D01*
X143082052Y-114427000D01*
X143429948Y-114427000D01*
X144119858Y-115116910D01*
X144304003Y-115036382D01*
X144391183Y-114782136D01*
X144570990Y-115217303D01*
X144963630Y-115610629D01*
X145476900Y-115823757D01*
X146032661Y-115824242D01*
X146546303Y-115612010D01*
X146939629Y-115219370D01*
X147152757Y-114706100D01*
X147153242Y-114150339D01*
X146941010Y-113636697D01*
X146548370Y-113243371D01*
X146035100Y-113030243D01*
X145479339Y-113029758D01*
X144965697Y-113241990D01*
X144572371Y-113634630D01*
X144400077Y-114049561D01*
X144304003Y-113817618D01*
X144119858Y-113737090D01*
X143429948Y-114427000D01*
X143082052Y-114427000D01*
X142392142Y-113737090D01*
X142207997Y-113817618D01*
X142102676Y-114124768D01*
X141901010Y-113636697D01*
X141827584Y-113563142D01*
X142566090Y-113563142D01*
X143256000Y-114253052D01*
X143945910Y-113563142D01*
X143865382Y-113378997D01*
X143417942Y-113225571D01*
X142945848Y-113255052D01*
X142646618Y-113378997D01*
X142566090Y-113563142D01*
X141827584Y-113563142D01*
X141508370Y-113243371D01*
X140995100Y-113030243D01*
X140439339Y-113029758D01*
X139925697Y-113241990D01*
X139532371Y-113634630D01*
X139319243Y-114147900D01*
X139318758Y-114703661D01*
X130987000Y-114703661D01*
X130987000Y-110973750D01*
X141406000Y-110973750D01*
X141406000Y-111203936D01*
X141471007Y-111360876D01*
X141591124Y-111480993D01*
X141748065Y-111546000D01*
X142203250Y-111546000D01*
X142310000Y-111439250D01*
X142310000Y-110867000D01*
X141512750Y-110867000D01*
X141406000Y-110973750D01*
X130987000Y-110973750D01*
X130987000Y-108367750D01*
X133015710Y-108367750D01*
X133015710Y-108622985D01*
X133080717Y-108779926D01*
X133200834Y-108900043D01*
X133357774Y-108965050D01*
X133613010Y-108965050D01*
X133719760Y-108858300D01*
X133719760Y-108261000D01*
X133965760Y-108261000D01*
X133965760Y-108858300D01*
X134072510Y-108965050D01*
X134327746Y-108965050D01*
X134484686Y-108900043D01*
X134604803Y-108779926D01*
X134669810Y-108622985D01*
X134669810Y-108367750D01*
X134563060Y-108261000D01*
X133965760Y-108261000D01*
X133719760Y-108261000D01*
X133122460Y-108261000D01*
X133015710Y-108367750D01*
X130987000Y-108367750D01*
X130987000Y-108044520D01*
X131191840Y-108184481D01*
X131443730Y-108235490D01*
X132243830Y-108235490D01*
X132479147Y-108191212D01*
X132695271Y-108052140D01*
X132766427Y-107948000D01*
X133055460Y-107948000D01*
X133122460Y-108015000D01*
X133719760Y-108015000D01*
X133719760Y-107995000D01*
X133965760Y-107995000D01*
X133965760Y-108015000D01*
X134563060Y-108015000D01*
X134630060Y-107948000D01*
X137697998Y-107948000D01*
X137988837Y-107890148D01*
X138235399Y-107725401D01*
X139239985Y-106720815D01*
X139336910Y-106871441D01*
X139549110Y-107016431D01*
X139641000Y-107035039D01*
X139641000Y-108227666D01*
X139565683Y-108241838D01*
X139349559Y-108380910D01*
X139295519Y-108460000D01*
X138357463Y-108460000D01*
X138325327Y-108427808D01*
X137981799Y-108285162D01*
X137609833Y-108284838D01*
X137266057Y-108426883D01*
X137002808Y-108689673D01*
X136860162Y-109033201D01*
X136859838Y-109405167D01*
X137001883Y-109748943D01*
X137264673Y-110012192D01*
X137608201Y-110154838D01*
X137980167Y-110155162D01*
X138323943Y-110013117D01*
X138357118Y-109980000D01*
X139294156Y-109980000D01*
X139336910Y-110046441D01*
X139549110Y-110191431D01*
X139801000Y-110242440D01*
X141001000Y-110242440D01*
X141236317Y-110198162D01*
X141452441Y-110059090D01*
X141508287Y-109977357D01*
X141587827Y-110010304D01*
X141471007Y-110127124D01*
X141406000Y-110284064D01*
X141406000Y-110514250D01*
X141512750Y-110621000D01*
X142310000Y-110621000D01*
X142310000Y-110048750D01*
X142203250Y-109942000D01*
X142151250Y-109942000D01*
X142178000Y-109915250D01*
X142178000Y-109343000D01*
X142158000Y-109343000D01*
X142158000Y-109097000D01*
X142178000Y-109097000D01*
X142178000Y-108524750D01*
X142151250Y-108498000D01*
X142203250Y-108498000D01*
X142310000Y-108391250D01*
X142310000Y-107819000D01*
X141512750Y-107819000D01*
X141406000Y-107925750D01*
X141406000Y-108155936D01*
X141471007Y-108312876D01*
X141587827Y-108429696D01*
X141509280Y-108462232D01*
X141465090Y-108393559D01*
X141252890Y-108248569D01*
X141161000Y-108229961D01*
X141161000Y-107236064D01*
X141406000Y-107236064D01*
X141406000Y-107466250D01*
X141512750Y-107573000D01*
X142310000Y-107573000D01*
X142310000Y-107000750D01*
X142203250Y-106894000D01*
X141748065Y-106894000D01*
X141591124Y-106959007D01*
X141471007Y-107079124D01*
X141406000Y-107236064D01*
X141161000Y-107236064D01*
X141161000Y-107037334D01*
X141236317Y-107023162D01*
X141452441Y-106884090D01*
X141508287Y-106802357D01*
X141616065Y-106847000D01*
X142071250Y-106847000D01*
X142178000Y-106740250D01*
X142178000Y-106168000D01*
X142158000Y-106168000D01*
X142158000Y-105922000D01*
X142178000Y-105922000D01*
X142178000Y-105902000D01*
X142424000Y-105902000D01*
X142424000Y-105922000D01*
X142444000Y-105922000D01*
X142444000Y-106168000D01*
X142424000Y-106168000D01*
X142424000Y-106740250D01*
X142530750Y-106847000D01*
X142985935Y-106847000D01*
X143142876Y-106781993D01*
X143262993Y-106661876D01*
X143312809Y-106541611D01*
X143492422Y-106721224D01*
X143281559Y-106856910D01*
X143225713Y-106938643D01*
X143117935Y-106894000D01*
X142662750Y-106894000D01*
X142556000Y-107000750D01*
X142556000Y-107573000D01*
X142576000Y-107573000D01*
X142576000Y-107819000D01*
X142556000Y-107819000D01*
X142556000Y-108391250D01*
X142582750Y-108418000D01*
X142530750Y-108418000D01*
X142424000Y-108524750D01*
X142424000Y-109097000D01*
X143221250Y-109097000D01*
X143328000Y-108990250D01*
X143328000Y-108760064D01*
X143262993Y-108603124D01*
X143146173Y-108486304D01*
X143224720Y-108453768D01*
X143268910Y-108522441D01*
X143481110Y-108667431D01*
X143573000Y-108686039D01*
X143573000Y-109751666D01*
X143497683Y-109765838D01*
X143281559Y-109904910D01*
X143225713Y-109986643D01*
X143146173Y-109953696D01*
X143262993Y-109836876D01*
X143328000Y-109679936D01*
X143328000Y-109449750D01*
X143221250Y-109343000D01*
X142424000Y-109343000D01*
X142424000Y-109915250D01*
X142530750Y-110022000D01*
X142582750Y-110022000D01*
X142556000Y-110048750D01*
X142556000Y-110621000D01*
X142576000Y-110621000D01*
X142576000Y-110867000D01*
X142556000Y-110867000D01*
X142556000Y-111439250D01*
X142662750Y-111546000D01*
X143117935Y-111546000D01*
X143224720Y-111501768D01*
X143268910Y-111570441D01*
X143481110Y-111715431D01*
X143733000Y-111766440D01*
X144933000Y-111766440D01*
X145097191Y-111735545D01*
X145118990Y-111788303D01*
X145511630Y-112181629D01*
X146024900Y-112394757D01*
X146211721Y-112394920D01*
X146272883Y-112542943D01*
X146535673Y-112806192D01*
X146879201Y-112948838D01*
X147251167Y-112949162D01*
X147594943Y-112807117D01*
X147858192Y-112544327D01*
X147940388Y-112346377D01*
X148056900Y-112394757D01*
X148612661Y-112395242D01*
X149126303Y-112183010D01*
X149519629Y-111790370D01*
X149732757Y-111277100D01*
X149733071Y-110916890D01*
X150045167Y-110917162D01*
X150388943Y-110775117D01*
X150652192Y-110512327D01*
X150794838Y-110168799D01*
X150795162Y-109796833D01*
X150653117Y-109453057D01*
X150480294Y-109279932D01*
X150494757Y-109245100D01*
X150495242Y-108689339D01*
X150283010Y-108175697D01*
X149890370Y-107782371D01*
X149875222Y-107776081D01*
X150103317Y-107733162D01*
X150319441Y-107594090D01*
X150367134Y-107524289D01*
X150403910Y-107581441D01*
X150575886Y-107698947D01*
X150575838Y-107754167D01*
X150717883Y-108097943D01*
X150980673Y-108361192D01*
X151324201Y-108503838D01*
X151696167Y-108504162D01*
X152039943Y-108362117D01*
X152303192Y-108099327D01*
X152445838Y-107755799D01*
X152445938Y-107641388D01*
X152519441Y-107594090D01*
X152664431Y-107381890D01*
X152715440Y-107130000D01*
X152715440Y-106230000D01*
X152671162Y-105994683D01*
X152532090Y-105778559D01*
X152319890Y-105633569D01*
X152068000Y-105582560D01*
X150868000Y-105582560D01*
X150632683Y-105626838D01*
X150416559Y-105765910D01*
X150368866Y-105835711D01*
X150332090Y-105778559D01*
X150119890Y-105633569D01*
X149868000Y-105582560D01*
X148668000Y-105582560D01*
X148432683Y-105626838D01*
X148216559Y-105765910D01*
X148094192Y-105945000D01*
X147537032Y-105945000D01*
X147038000Y-105445968D01*
X147038000Y-105067000D01*
X147051002Y-105067000D01*
X147051002Y-104970752D01*
X147147250Y-105067000D01*
X147237936Y-105067000D01*
X147253000Y-105060760D01*
X147268064Y-105067000D01*
X147358750Y-105067000D01*
X147465500Y-104960250D01*
X147465500Y-104931369D01*
X147514993Y-104881876D01*
X147580000Y-104724935D01*
X147580000Y-104144750D01*
X147473250Y-104038000D01*
X147690500Y-104038000D01*
X147690500Y-104960250D01*
X147797250Y-105067000D01*
X147887936Y-105067000D01*
X148044876Y-105001993D01*
X148164993Y-104881876D01*
X148230000Y-104724935D01*
X148230000Y-104144750D01*
X148123250Y-104038000D01*
X147690500Y-104038000D01*
X147473250Y-104038000D01*
X147435000Y-104038000D01*
X147435000Y-103792000D01*
X147473250Y-103792000D01*
X147580000Y-103685250D01*
X147580000Y-103105065D01*
X147514993Y-102948124D01*
X147465500Y-102898631D01*
X147465500Y-102869750D01*
X147690500Y-102869750D01*
X147690500Y-103792000D01*
X148123250Y-103792000D01*
X148230000Y-103685250D01*
X148230000Y-103105065D01*
X148164993Y-102948124D01*
X148044876Y-102828007D01*
X147887936Y-102763000D01*
X147797250Y-102763000D01*
X147690500Y-102869750D01*
X147465500Y-102869750D01*
X147358750Y-102763000D01*
X147268064Y-102763000D01*
X147253000Y-102769240D01*
X147237936Y-102763000D01*
X147147250Y-102763000D01*
X147051002Y-102859248D01*
X147051002Y-102763000D01*
X146982817Y-102763000D01*
X146967090Y-102738559D01*
X146754890Y-102593569D01*
X146604157Y-102563045D01*
X146604162Y-102557833D01*
X146462117Y-102214057D01*
X146199327Y-101950808D01*
X145855799Y-101808162D01*
X145483833Y-101807838D01*
X145140057Y-101949883D01*
X144876808Y-102212673D01*
X144738710Y-102545249D01*
X144517683Y-102586838D01*
X144325773Y-102710329D01*
X144154890Y-102593569D01*
X143903000Y-102542560D01*
X143453000Y-102542560D01*
X143349329Y-102562067D01*
X143253000Y-102542560D01*
X142803000Y-102542560D01*
X142567683Y-102586838D01*
X142375773Y-102710329D01*
X142204890Y-102593569D01*
X141953000Y-102542560D01*
X141503000Y-102542560D01*
X141267683Y-102586838D01*
X141096317Y-102697109D01*
X140784833Y-102696838D01*
X140441057Y-102838883D01*
X140177808Y-103101673D01*
X140035162Y-103445201D01*
X140034874Y-103776322D01*
X137383196Y-106428000D01*
X134890250Y-106428000D01*
X134890250Y-105837950D01*
X134845972Y-105602633D01*
X134780868Y-105501459D01*
X134884431Y-105349890D01*
X134935440Y-105098000D01*
X134935440Y-104198000D01*
X134891162Y-103962683D01*
X134752090Y-103746559D01*
X134703684Y-103713484D01*
X134800431Y-103571890D01*
X134851440Y-103320000D01*
X134851440Y-102420000D01*
X134807162Y-102184683D01*
X134731166Y-102066583D01*
X134788481Y-101982700D01*
X134839490Y-101730810D01*
X134839490Y-100930710D01*
X134796902Y-100704376D01*
X135097630Y-101005629D01*
X135610900Y-101218757D01*
X136166661Y-101219242D01*
X136533000Y-101067874D01*
X136533000Y-103344574D01*
X136590852Y-103635413D01*
X136755599Y-103881975D01*
X136952983Y-104079359D01*
X136952943Y-104124846D01*
X137094988Y-104468622D01*
X137357778Y-104731871D01*
X137701306Y-104874517D01*
X138073272Y-104874841D01*
X138417048Y-104732796D01*
X138680297Y-104470006D01*
X138822943Y-104126478D01*
X138823267Y-103754512D01*
X138681222Y-103410736D01*
X138418432Y-103147487D01*
X138074904Y-103004841D01*
X138053000Y-103004822D01*
X138053000Y-102789115D01*
X138107167Y-102789162D01*
X138450943Y-102647117D01*
X138714192Y-102384327D01*
X138856838Y-102040799D01*
X138856879Y-101993923D01*
X139207631Y-101643171D01*
X139241910Y-101696441D01*
X139454110Y-101841431D01*
X139706000Y-101892440D01*
X140456000Y-101892440D01*
X140691317Y-101848162D01*
X140907441Y-101709090D01*
X141052431Y-101496890D01*
X141071039Y-101405000D01*
X141964795Y-101405000D01*
X142255634Y-101347148D01*
X142502196Y-101182401D01*
X144215401Y-99469196D01*
X144270028Y-99387440D01*
X144553000Y-99387440D01*
X144656671Y-99367933D01*
X144753000Y-99387440D01*
X145203000Y-99387440D01*
X145306671Y-99367933D01*
X145403000Y-99387440D01*
X145853000Y-99387440D01*
X145956671Y-99367933D01*
X146053000Y-99387440D01*
X146503000Y-99387440D01*
X146738317Y-99343162D01*
X146954441Y-99204090D01*
X146979783Y-99167000D01*
X147051002Y-99167000D01*
X147051002Y-99070752D01*
X147147250Y-99167000D01*
X147237936Y-99167000D01*
X147253000Y-99160760D01*
X147268064Y-99167000D01*
X147358750Y-99167000D01*
X147465500Y-99060250D01*
X147465500Y-99031369D01*
X147514993Y-98981876D01*
X147580000Y-98824935D01*
X147580000Y-98244750D01*
X147473250Y-98138000D01*
X147690500Y-98138000D01*
X147690500Y-99060250D01*
X147797250Y-99167000D01*
X147887936Y-99167000D01*
X148044876Y-99101993D01*
X148164993Y-98981876D01*
X148230000Y-98824935D01*
X148230000Y-98244750D01*
X148123250Y-98138000D01*
X147690500Y-98138000D01*
X147473250Y-98138000D01*
X147435000Y-98138000D01*
X147435000Y-97892000D01*
X147473250Y-97892000D01*
X147493250Y-97872000D01*
X147690500Y-97872000D01*
X147690500Y-97892000D01*
X148123250Y-97892000D01*
X148127417Y-97887833D01*
X148186673Y-97947192D01*
X148530201Y-98089838D01*
X148902167Y-98090162D01*
X149245943Y-97948117D01*
X149279118Y-97915000D01*
X149479000Y-97915000D01*
X149769839Y-97857148D01*
X149780910Y-97849750D01*
X152539000Y-97849750D01*
X152539000Y-98304935D01*
X152604007Y-98461876D01*
X152724124Y-98581993D01*
X152881064Y-98647000D01*
X153186250Y-98647000D01*
X153293000Y-98540250D01*
X153293000Y-97743000D01*
X152645750Y-97743000D01*
X152539000Y-97849750D01*
X149780910Y-97849750D01*
X150016401Y-97692401D01*
X150524401Y-97184401D01*
X150588913Y-97087852D01*
X150689148Y-96937839D01*
X150747000Y-96647000D01*
X150747000Y-94107000D01*
X150689148Y-93816161D01*
X150524401Y-93569599D01*
X150078400Y-93123598D01*
X150035851Y-93095168D01*
X150048440Y-93033000D01*
X150048440Y-92261750D01*
X152539000Y-92261750D01*
X152539000Y-92716935D01*
X152604007Y-92873876D01*
X152724124Y-92993993D01*
X152881064Y-93059000D01*
X153186250Y-93059000D01*
X153293000Y-92952250D01*
X153293000Y-92155000D01*
X152645750Y-92155000D01*
X152539000Y-92261750D01*
X150048440Y-92261750D01*
X150048440Y-92133000D01*
X150004162Y-91897683D01*
X149955566Y-91822162D01*
X149997431Y-91760890D01*
X150048440Y-91509000D01*
X150048440Y-90609000D01*
X150004162Y-90373683D01*
X149955566Y-90298162D01*
X149997431Y-90236890D01*
X150048440Y-89985000D01*
X150048440Y-89085000D01*
X150004162Y-88849683D01*
X149865090Y-88633559D01*
X149652890Y-88488569D01*
X149561000Y-88469961D01*
X149561000Y-84812802D01*
X149999680Y-84374122D01*
X150045167Y-84374162D01*
X150388943Y-84232117D01*
X150652192Y-83969327D01*
X150794838Y-83625799D01*
X150795162Y-83253833D01*
X150653117Y-82910057D01*
X150390327Y-82646808D01*
X150046799Y-82504162D01*
X149674833Y-82503838D01*
X149331057Y-82645883D01*
X149067808Y-82908673D01*
X148925162Y-83252201D01*
X148925121Y-83299077D01*
X148263599Y-83960599D01*
X148098852Y-84207161D01*
X148041000Y-84498000D01*
X148041000Y-88467666D01*
X147965683Y-88481838D01*
X147749559Y-88620910D01*
X147604569Y-88833110D01*
X147589555Y-88907250D01*
X147562993Y-88843124D01*
X147442876Y-88723007D01*
X147285935Y-88658000D01*
X146830750Y-88658000D01*
X146724000Y-88764750D01*
X146724000Y-89412000D01*
X146744000Y-89412000D01*
X146744000Y-89658000D01*
X146724000Y-89658000D01*
X146724000Y-89678000D01*
X146478000Y-89678000D01*
X146478000Y-89658000D01*
X145680750Y-89658000D01*
X145574000Y-89764750D01*
X145574000Y-90069936D01*
X145593376Y-90116714D01*
X145549559Y-90144910D01*
X145404569Y-90357110D01*
X145353560Y-90609000D01*
X145353560Y-91231638D01*
X144440599Y-92144599D01*
X144275852Y-92391161D01*
X144218000Y-92682000D01*
X144218000Y-93084560D01*
X143818759Y-93084560D01*
X143836000Y-93042936D01*
X143836000Y-92812750D01*
X143729250Y-92706000D01*
X142932000Y-92706000D01*
X142932000Y-92726000D01*
X142686000Y-92726000D01*
X142686000Y-92706000D01*
X142666000Y-92706000D01*
X142666000Y-92460000D01*
X142686000Y-92460000D01*
X142686000Y-91887750D01*
X142932000Y-91887750D01*
X142932000Y-92460000D01*
X143729250Y-92460000D01*
X143836000Y-92353250D01*
X143836000Y-92123064D01*
X143770993Y-91966124D01*
X143650876Y-91846007D01*
X143493935Y-91781000D01*
X143038750Y-91781000D01*
X142932000Y-91887750D01*
X142686000Y-91887750D01*
X142579250Y-91781000D01*
X142124065Y-91781000D01*
X142017280Y-91825232D01*
X141973090Y-91756559D01*
X141760890Y-91611569D01*
X141509000Y-91560560D01*
X140309000Y-91560560D01*
X140217022Y-91577867D01*
X140217022Y-90526750D01*
X140784000Y-90526750D01*
X140784000Y-90681936D01*
X140849007Y-90838876D01*
X140969124Y-90958993D01*
X141126065Y-91024000D01*
X141756250Y-91024000D01*
X141863000Y-90917250D01*
X141863000Y-90420000D01*
X140890750Y-90420000D01*
X140784000Y-90526750D01*
X140217022Y-90526750D01*
X140217022Y-90125780D01*
X140675436Y-89667366D01*
X140746910Y-89778441D01*
X140818958Y-89827669D01*
X140784000Y-89912064D01*
X140784000Y-90067250D01*
X140890750Y-90174000D01*
X141863000Y-90174000D01*
X141863000Y-90154000D01*
X142109000Y-90154000D01*
X142109000Y-90174000D01*
X142129000Y-90174000D01*
X142129000Y-90420000D01*
X142109000Y-90420000D01*
X142109000Y-90917250D01*
X142215750Y-91024000D01*
X142845935Y-91024000D01*
X143002876Y-90958993D01*
X143122993Y-90838876D01*
X143188000Y-90681936D01*
X143188000Y-90544403D01*
X143206007Y-90587876D01*
X143326124Y-90707993D01*
X143483064Y-90773000D01*
X143788250Y-90773000D01*
X143895000Y-90666250D01*
X143895000Y-89869000D01*
X144141000Y-89869000D01*
X144141000Y-90666250D01*
X144247750Y-90773000D01*
X144552936Y-90773000D01*
X144709876Y-90707993D01*
X144829993Y-90587876D01*
X144895000Y-90430935D01*
X144895000Y-89975750D01*
X144788250Y-89869000D01*
X144141000Y-89869000D01*
X143895000Y-89869000D01*
X143875000Y-89869000D01*
X143875000Y-89623000D01*
X143895000Y-89623000D01*
X143895000Y-89603000D01*
X144141000Y-89603000D01*
X144141000Y-89623000D01*
X144788250Y-89623000D01*
X144895000Y-89516250D01*
X144895000Y-89061065D01*
X144869733Y-89000064D01*
X145574000Y-89000064D01*
X145574000Y-89305250D01*
X145680750Y-89412000D01*
X146478000Y-89412000D01*
X146478000Y-88764750D01*
X146371250Y-88658000D01*
X145916065Y-88658000D01*
X145759124Y-88723007D01*
X145639007Y-88843124D01*
X145574000Y-89000064D01*
X144869733Y-89000064D01*
X144829993Y-88904124D01*
X144709876Y-88784007D01*
X144649982Y-88759198D01*
X144703317Y-88749162D01*
X144919441Y-88610090D01*
X144950223Y-88565038D01*
X145092167Y-88565162D01*
X145435943Y-88423117D01*
X145699192Y-88160327D01*
X145841838Y-87816799D01*
X145842162Y-87444833D01*
X145700117Y-87101057D01*
X145437327Y-86837808D01*
X145093799Y-86695162D01*
X145061156Y-86695134D01*
X144932090Y-86494559D01*
X144719890Y-86349569D01*
X144468000Y-86298560D01*
X143845362Y-86298560D01*
X143496401Y-85949599D01*
X143262067Y-85793022D01*
X143225090Y-85735559D01*
X143012890Y-85590569D01*
X142761000Y-85539560D01*
X141211000Y-85539560D01*
X140975683Y-85583838D01*
X140759559Y-85722910D01*
X140614569Y-85935110D01*
X140563560Y-86187000D01*
X140563560Y-86787000D01*
X140607838Y-87022317D01*
X140671678Y-87121528D01*
X140614569Y-87205110D01*
X140563560Y-87457000D01*
X140563560Y-87629638D01*
X138919621Y-89273577D01*
X138754874Y-89520139D01*
X138733980Y-89625178D01*
X138008440Y-88899638D01*
X138008440Y-88727000D01*
X137964162Y-88491683D01*
X137900322Y-88392472D01*
X137957431Y-88308890D01*
X138008440Y-88057000D01*
X138008440Y-87457000D01*
X137964162Y-87221683D01*
X137900322Y-87122472D01*
X137957431Y-87038890D01*
X138008440Y-86787000D01*
X138008440Y-86187000D01*
X137964162Y-85951683D01*
X137839637Y-85758165D01*
X137866362Y-85731440D01*
X138969000Y-85731440D01*
X139204317Y-85687162D01*
X139420441Y-85548090D01*
X139476287Y-85466357D01*
X139584065Y-85511000D01*
X140039250Y-85511000D01*
X140146000Y-85404250D01*
X140146000Y-84832000D01*
X140392000Y-84832000D01*
X140392000Y-85404250D01*
X140498750Y-85511000D01*
X140953935Y-85511000D01*
X141110876Y-85445993D01*
X141230993Y-85325876D01*
X141296000Y-85168936D01*
X141296000Y-84938750D01*
X141189250Y-84832000D01*
X140392000Y-84832000D01*
X140146000Y-84832000D01*
X140126000Y-84832000D01*
X140126000Y-84586000D01*
X140146000Y-84586000D01*
X140146000Y-84013750D01*
X140392000Y-84013750D01*
X140392000Y-84586000D01*
X141189250Y-84586000D01*
X141296000Y-84479250D01*
X141296000Y-84249064D01*
X141230993Y-84092124D01*
X141110876Y-83972007D01*
X140953935Y-83907000D01*
X140498750Y-83907000D01*
X140392000Y-84013750D01*
X140146000Y-84013750D01*
X140039250Y-83907000D01*
X139584065Y-83907000D01*
X139477280Y-83951232D01*
X139433090Y-83882559D01*
X139220890Y-83737569D01*
X138969000Y-83686560D01*
X137769000Y-83686560D01*
X137533683Y-83730838D01*
X137317559Y-83869910D01*
X137172569Y-84082110D01*
X137137864Y-84253489D01*
X137055327Y-84170808D01*
X136711799Y-84028162D01*
X136339833Y-84027838D01*
X135996057Y-84169883D01*
X135937838Y-84228000D01*
X134566000Y-84228000D01*
X134284728Y-84283949D01*
X134046277Y-84443276D01*
X131847911Y-86641642D01*
X131813876Y-86607607D01*
X131656935Y-86542600D01*
X131547750Y-86542600D01*
X131441000Y-86649350D01*
X131441000Y-86957160D01*
X131195000Y-86957160D01*
X131195000Y-86649350D01*
X131088250Y-86542600D01*
X130987000Y-86542600D01*
X130987000Y-80949000D01*
X153747000Y-80949000D01*
X153747000Y-87644040D01*
X153747000Y-87644040D01*
G37*
X153747000Y-87644040D02*
X153602799Y-87584162D01*
X153230833Y-87583838D01*
X152887057Y-87725883D01*
X152623808Y-87988673D01*
X152481162Y-88332201D01*
X152480838Y-88704167D01*
X152509958Y-88774643D01*
X152369569Y-88980110D01*
X152318560Y-89232000D01*
X152318560Y-90432000D01*
X152362838Y-90667317D01*
X152501910Y-90883441D01*
X152714110Y-91028431D01*
X152788250Y-91043445D01*
X152724124Y-91070007D01*
X152604007Y-91190124D01*
X152539000Y-91347065D01*
X152539000Y-91802250D01*
X152645750Y-91909000D01*
X153293000Y-91909000D01*
X153293000Y-91889000D01*
X153539000Y-91889000D01*
X153539000Y-91909000D01*
X153559000Y-91909000D01*
X153559000Y-92155000D01*
X153539000Y-92155000D01*
X153539000Y-92952250D01*
X153645750Y-93059000D01*
X153747000Y-93059000D01*
X153747000Y-93171845D01*
X153738833Y-93171838D01*
X153395057Y-93313883D01*
X153131808Y-93576673D01*
X152989162Y-93920201D01*
X152989090Y-94002463D01*
X152896277Y-94095277D01*
X152827185Y-94198680D01*
X152730683Y-94216838D01*
X152514559Y-94355910D01*
X152369569Y-94568110D01*
X152318560Y-94820000D01*
X152318560Y-96020000D01*
X152362838Y-96255317D01*
X152501910Y-96471441D01*
X152714110Y-96616431D01*
X152788250Y-96631445D01*
X152724124Y-96658007D01*
X152604007Y-96778124D01*
X152539000Y-96935065D01*
X152539000Y-97390250D01*
X152645750Y-97497000D01*
X153293000Y-97497000D01*
X153293000Y-97477000D01*
X153539000Y-97477000D01*
X153539000Y-97497000D01*
X153559000Y-97497000D01*
X153559000Y-97743000D01*
X153539000Y-97743000D01*
X153539000Y-98540250D01*
X153645750Y-98647000D01*
X153747000Y-98647000D01*
X153747000Y-115901000D01*
X130987000Y-115901000D01*
X130987000Y-114703661D01*
X139318758Y-114703661D01*
X139530990Y-115217303D01*
X139923630Y-115610629D01*
X140436900Y-115823757D01*
X140992661Y-115824242D01*
X141506303Y-115612010D01*
X141828016Y-115290858D01*
X142566090Y-115290858D01*
X142646618Y-115475003D01*
X143094058Y-115628429D01*
X143566152Y-115598948D01*
X143865382Y-115475003D01*
X143945910Y-115290858D01*
X143256000Y-114600948D01*
X142566090Y-115290858D01*
X141828016Y-115290858D01*
X141899629Y-115219370D01*
X142091948Y-114756214D01*
X142207997Y-115036382D01*
X142392142Y-115116910D01*
X143082052Y-114427000D01*
X143429948Y-114427000D01*
X144119858Y-115116910D01*
X144304003Y-115036382D01*
X144391183Y-114782136D01*
X144570990Y-115217303D01*
X144963630Y-115610629D01*
X145476900Y-115823757D01*
X146032661Y-115824242D01*
X146546303Y-115612010D01*
X146939629Y-115219370D01*
X147152757Y-114706100D01*
X147153242Y-114150339D01*
X146941010Y-113636697D01*
X146548370Y-113243371D01*
X146035100Y-113030243D01*
X145479339Y-113029758D01*
X144965697Y-113241990D01*
X144572371Y-113634630D01*
X144400077Y-114049561D01*
X144304003Y-113817618D01*
X144119858Y-113737090D01*
X143429948Y-114427000D01*
X143082052Y-114427000D01*
X142392142Y-113737090D01*
X142207997Y-113817618D01*
X142102676Y-114124768D01*
X141901010Y-113636697D01*
X141827584Y-113563142D01*
X142566090Y-113563142D01*
X143256000Y-114253052D01*
X143945910Y-113563142D01*
X143865382Y-113378997D01*
X143417942Y-113225571D01*
X142945848Y-113255052D01*
X142646618Y-113378997D01*
X142566090Y-113563142D01*
X141827584Y-113563142D01*
X141508370Y-113243371D01*
X140995100Y-113030243D01*
X140439339Y-113029758D01*
X139925697Y-113241990D01*
X139532371Y-113634630D01*
X139319243Y-114147900D01*
X139318758Y-114703661D01*
X130987000Y-114703661D01*
X130987000Y-110973750D01*
X141406000Y-110973750D01*
X141406000Y-111203936D01*
X141471007Y-111360876D01*
X141591124Y-111480993D01*
X141748065Y-111546000D01*
X142203250Y-111546000D01*
X142310000Y-111439250D01*
X142310000Y-110867000D01*
X141512750Y-110867000D01*
X141406000Y-110973750D01*
X130987000Y-110973750D01*
X130987000Y-108367750D01*
X133015710Y-108367750D01*
X133015710Y-108622985D01*
X133080717Y-108779926D01*
X133200834Y-108900043D01*
X133357774Y-108965050D01*
X133613010Y-108965050D01*
X133719760Y-108858300D01*
X133719760Y-108261000D01*
X133965760Y-108261000D01*
X133965760Y-108858300D01*
X134072510Y-108965050D01*
X134327746Y-108965050D01*
X134484686Y-108900043D01*
X134604803Y-108779926D01*
X134669810Y-108622985D01*
X134669810Y-108367750D01*
X134563060Y-108261000D01*
X133965760Y-108261000D01*
X133719760Y-108261000D01*
X133122460Y-108261000D01*
X133015710Y-108367750D01*
X130987000Y-108367750D01*
X130987000Y-108044520D01*
X131191840Y-108184481D01*
X131443730Y-108235490D01*
X132243830Y-108235490D01*
X132479147Y-108191212D01*
X132695271Y-108052140D01*
X132766427Y-107948000D01*
X133055460Y-107948000D01*
X133122460Y-108015000D01*
X133719760Y-108015000D01*
X133719760Y-107995000D01*
X133965760Y-107995000D01*
X133965760Y-108015000D01*
X134563060Y-108015000D01*
X134630060Y-107948000D01*
X137697998Y-107948000D01*
X137988837Y-107890148D01*
X138235399Y-107725401D01*
X139239985Y-106720815D01*
X139336910Y-106871441D01*
X139549110Y-107016431D01*
X139641000Y-107035039D01*
X139641000Y-108227666D01*
X139565683Y-108241838D01*
X139349559Y-108380910D01*
X139295519Y-108460000D01*
X138357463Y-108460000D01*
X138325327Y-108427808D01*
X137981799Y-108285162D01*
X137609833Y-108284838D01*
X137266057Y-108426883D01*
X137002808Y-108689673D01*
X136860162Y-109033201D01*
X136859838Y-109405167D01*
X137001883Y-109748943D01*
X137264673Y-110012192D01*
X137608201Y-110154838D01*
X137980167Y-110155162D01*
X138323943Y-110013117D01*
X138357118Y-109980000D01*
X139294156Y-109980000D01*
X139336910Y-110046441D01*
X139549110Y-110191431D01*
X139801000Y-110242440D01*
X141001000Y-110242440D01*
X141236317Y-110198162D01*
X141452441Y-110059090D01*
X141508287Y-109977357D01*
X141587827Y-110010304D01*
X141471007Y-110127124D01*
X141406000Y-110284064D01*
X141406000Y-110514250D01*
X141512750Y-110621000D01*
X142310000Y-110621000D01*
X142310000Y-110048750D01*
X142203250Y-109942000D01*
X142151250Y-109942000D01*
X142178000Y-109915250D01*
X142178000Y-109343000D01*
X142158000Y-109343000D01*
X142158000Y-109097000D01*
X142178000Y-109097000D01*
X142178000Y-108524750D01*
X142151250Y-108498000D01*
X142203250Y-108498000D01*
X142310000Y-108391250D01*
X142310000Y-107819000D01*
X141512750Y-107819000D01*
X141406000Y-107925750D01*
X141406000Y-108155936D01*
X141471007Y-108312876D01*
X141587827Y-108429696D01*
X141509280Y-108462232D01*
X141465090Y-108393559D01*
X141252890Y-108248569D01*
X141161000Y-108229961D01*
X141161000Y-107236064D01*
X141406000Y-107236064D01*
X141406000Y-107466250D01*
X141512750Y-107573000D01*
X142310000Y-107573000D01*
X142310000Y-107000750D01*
X142203250Y-106894000D01*
X141748065Y-106894000D01*
X141591124Y-106959007D01*
X141471007Y-107079124D01*
X141406000Y-107236064D01*
X141161000Y-107236064D01*
X141161000Y-107037334D01*
X141236317Y-107023162D01*
X141452441Y-106884090D01*
X141508287Y-106802357D01*
X141616065Y-106847000D01*
X142071250Y-106847000D01*
X142178000Y-106740250D01*
X142178000Y-106168000D01*
X142158000Y-106168000D01*
X142158000Y-105922000D01*
X142178000Y-105922000D01*
X142178000Y-105902000D01*
X142424000Y-105902000D01*
X142424000Y-105922000D01*
X142444000Y-105922000D01*
X142444000Y-106168000D01*
X142424000Y-106168000D01*
X142424000Y-106740250D01*
X142530750Y-106847000D01*
X142985935Y-106847000D01*
X143142876Y-106781993D01*
X143262993Y-106661876D01*
X143312809Y-106541611D01*
X143492422Y-106721224D01*
X143281559Y-106856910D01*
X143225713Y-106938643D01*
X143117935Y-106894000D01*
X142662750Y-106894000D01*
X142556000Y-107000750D01*
X142556000Y-107573000D01*
X142576000Y-107573000D01*
X142576000Y-107819000D01*
X142556000Y-107819000D01*
X142556000Y-108391250D01*
X142582750Y-108418000D01*
X142530750Y-108418000D01*
X142424000Y-108524750D01*
X142424000Y-109097000D01*
X143221250Y-109097000D01*
X143328000Y-108990250D01*
X143328000Y-108760064D01*
X143262993Y-108603124D01*
X143146173Y-108486304D01*
X143224720Y-108453768D01*
X143268910Y-108522441D01*
X143481110Y-108667431D01*
X143573000Y-108686039D01*
X143573000Y-109751666D01*
X143497683Y-109765838D01*
X143281559Y-109904910D01*
X143225713Y-109986643D01*
X143146173Y-109953696D01*
X143262993Y-109836876D01*
X143328000Y-109679936D01*
X143328000Y-109449750D01*
X143221250Y-109343000D01*
X142424000Y-109343000D01*
X142424000Y-109915250D01*
X142530750Y-110022000D01*
X142582750Y-110022000D01*
X142556000Y-110048750D01*
X142556000Y-110621000D01*
X142576000Y-110621000D01*
X142576000Y-110867000D01*
X142556000Y-110867000D01*
X142556000Y-111439250D01*
X142662750Y-111546000D01*
X143117935Y-111546000D01*
X143224720Y-111501768D01*
X143268910Y-111570441D01*
X143481110Y-111715431D01*
X143733000Y-111766440D01*
X144933000Y-111766440D01*
X145097191Y-111735545D01*
X145118990Y-111788303D01*
X145511630Y-112181629D01*
X146024900Y-112394757D01*
X146211721Y-112394920D01*
X146272883Y-112542943D01*
X146535673Y-112806192D01*
X146879201Y-112948838D01*
X147251167Y-112949162D01*
X147594943Y-112807117D01*
X147858192Y-112544327D01*
X147940388Y-112346377D01*
X148056900Y-112394757D01*
X148612661Y-112395242D01*
X149126303Y-112183010D01*
X149519629Y-111790370D01*
X149732757Y-111277100D01*
X149733071Y-110916890D01*
X150045167Y-110917162D01*
X150388943Y-110775117D01*
X150652192Y-110512327D01*
X150794838Y-110168799D01*
X150795162Y-109796833D01*
X150653117Y-109453057D01*
X150480294Y-109279932D01*
X150494757Y-109245100D01*
X150495242Y-108689339D01*
X150283010Y-108175697D01*
X149890370Y-107782371D01*
X149875222Y-107776081D01*
X150103317Y-107733162D01*
X150319441Y-107594090D01*
X150367134Y-107524289D01*
X150403910Y-107581441D01*
X150575886Y-107698947D01*
X150575838Y-107754167D01*
X150717883Y-108097943D01*
X150980673Y-108361192D01*
X151324201Y-108503838D01*
X151696167Y-108504162D01*
X152039943Y-108362117D01*
X152303192Y-108099327D01*
X152445838Y-107755799D01*
X152445938Y-107641388D01*
X152519441Y-107594090D01*
X152664431Y-107381890D01*
X152715440Y-107130000D01*
X152715440Y-106230000D01*
X152671162Y-105994683D01*
X152532090Y-105778559D01*
X152319890Y-105633569D01*
X152068000Y-105582560D01*
X150868000Y-105582560D01*
X150632683Y-105626838D01*
X150416559Y-105765910D01*
X150368866Y-105835711D01*
X150332090Y-105778559D01*
X150119890Y-105633569D01*
X149868000Y-105582560D01*
X148668000Y-105582560D01*
X148432683Y-105626838D01*
X148216559Y-105765910D01*
X148094192Y-105945000D01*
X147537032Y-105945000D01*
X147038000Y-105445968D01*
X147038000Y-105067000D01*
X147051002Y-105067000D01*
X147051002Y-104970752D01*
X147147250Y-105067000D01*
X147237936Y-105067000D01*
X147253000Y-105060760D01*
X147268064Y-105067000D01*
X147358750Y-105067000D01*
X147465500Y-104960250D01*
X147465500Y-104931369D01*
X147514993Y-104881876D01*
X147580000Y-104724935D01*
X147580000Y-104144750D01*
X147473250Y-104038000D01*
X147690500Y-104038000D01*
X147690500Y-104960250D01*
X147797250Y-105067000D01*
X147887936Y-105067000D01*
X148044876Y-105001993D01*
X148164993Y-104881876D01*
X148230000Y-104724935D01*
X148230000Y-104144750D01*
X148123250Y-104038000D01*
X147690500Y-104038000D01*
X147473250Y-104038000D01*
X147435000Y-104038000D01*
X147435000Y-103792000D01*
X147473250Y-103792000D01*
X147580000Y-103685250D01*
X147580000Y-103105065D01*
X147514993Y-102948124D01*
X147465500Y-102898631D01*
X147465500Y-102869750D01*
X147690500Y-102869750D01*
X147690500Y-103792000D01*
X148123250Y-103792000D01*
X148230000Y-103685250D01*
X148230000Y-103105065D01*
X148164993Y-102948124D01*
X148044876Y-102828007D01*
X147887936Y-102763000D01*
X147797250Y-102763000D01*
X147690500Y-102869750D01*
X147465500Y-102869750D01*
X147358750Y-102763000D01*
X147268064Y-102763000D01*
X147253000Y-102769240D01*
X147237936Y-102763000D01*
X147147250Y-102763000D01*
X147051002Y-102859248D01*
X147051002Y-102763000D01*
X146982817Y-102763000D01*
X146967090Y-102738559D01*
X146754890Y-102593569D01*
X146604157Y-102563045D01*
X146604162Y-102557833D01*
X146462117Y-102214057D01*
X146199327Y-101950808D01*
X145855799Y-101808162D01*
X145483833Y-101807838D01*
X145140057Y-101949883D01*
X144876808Y-102212673D01*
X144738710Y-102545249D01*
X144517683Y-102586838D01*
X144325773Y-102710329D01*
X144154890Y-102593569D01*
X143903000Y-102542560D01*
X143453000Y-102542560D01*
X143349329Y-102562067D01*
X143253000Y-102542560D01*
X142803000Y-102542560D01*
X142567683Y-102586838D01*
X142375773Y-102710329D01*
X142204890Y-102593569D01*
X141953000Y-102542560D01*
X141503000Y-102542560D01*
X141267683Y-102586838D01*
X141096317Y-102697109D01*
X140784833Y-102696838D01*
X140441057Y-102838883D01*
X140177808Y-103101673D01*
X140035162Y-103445201D01*
X140034874Y-103776322D01*
X137383196Y-106428000D01*
X134890250Y-106428000D01*
X134890250Y-105837950D01*
X134845972Y-105602633D01*
X134780868Y-105501459D01*
X134884431Y-105349890D01*
X134935440Y-105098000D01*
X134935440Y-104198000D01*
X134891162Y-103962683D01*
X134752090Y-103746559D01*
X134703684Y-103713484D01*
X134800431Y-103571890D01*
X134851440Y-103320000D01*
X134851440Y-102420000D01*
X134807162Y-102184683D01*
X134731166Y-102066583D01*
X134788481Y-101982700D01*
X134839490Y-101730810D01*
X134839490Y-100930710D01*
X134796902Y-100704376D01*
X135097630Y-101005629D01*
X135610900Y-101218757D01*
X136166661Y-101219242D01*
X136533000Y-101067874D01*
X136533000Y-103344574D01*
X136590852Y-103635413D01*
X136755599Y-103881975D01*
X136952983Y-104079359D01*
X136952943Y-104124846D01*
X137094988Y-104468622D01*
X137357778Y-104731871D01*
X137701306Y-104874517D01*
X138073272Y-104874841D01*
X138417048Y-104732796D01*
X138680297Y-104470006D01*
X138822943Y-104126478D01*
X138823267Y-103754512D01*
X138681222Y-103410736D01*
X138418432Y-103147487D01*
X138074904Y-103004841D01*
X138053000Y-103004822D01*
X138053000Y-102789115D01*
X138107167Y-102789162D01*
X138450943Y-102647117D01*
X138714192Y-102384327D01*
X138856838Y-102040799D01*
X138856879Y-101993923D01*
X139207631Y-101643171D01*
X139241910Y-101696441D01*
X139454110Y-101841431D01*
X139706000Y-101892440D01*
X140456000Y-101892440D01*
X140691317Y-101848162D01*
X140907441Y-101709090D01*
X141052431Y-101496890D01*
X141071039Y-101405000D01*
X141964795Y-101405000D01*
X142255634Y-101347148D01*
X142502196Y-101182401D01*
X144215401Y-99469196D01*
X144270028Y-99387440D01*
X144553000Y-99387440D01*
X144656671Y-99367933D01*
X144753000Y-99387440D01*
X145203000Y-99387440D01*
X145306671Y-99367933D01*
X145403000Y-99387440D01*
X145853000Y-99387440D01*
X145956671Y-99367933D01*
X146053000Y-99387440D01*
X146503000Y-99387440D01*
X146738317Y-99343162D01*
X146954441Y-99204090D01*
X146979783Y-99167000D01*
X147051002Y-99167000D01*
X147051002Y-99070752D01*
X147147250Y-99167000D01*
X147237936Y-99167000D01*
X147253000Y-99160760D01*
X147268064Y-99167000D01*
X147358750Y-99167000D01*
X147465500Y-99060250D01*
X147465500Y-99031369D01*
X147514993Y-98981876D01*
X147580000Y-98824935D01*
X147580000Y-98244750D01*
X147473250Y-98138000D01*
X147690500Y-98138000D01*
X147690500Y-99060250D01*
X147797250Y-99167000D01*
X147887936Y-99167000D01*
X148044876Y-99101993D01*
X148164993Y-98981876D01*
X148230000Y-98824935D01*
X148230000Y-98244750D01*
X148123250Y-98138000D01*
X147690500Y-98138000D01*
X147473250Y-98138000D01*
X147435000Y-98138000D01*
X147435000Y-97892000D01*
X147473250Y-97892000D01*
X147493250Y-97872000D01*
X147690500Y-97872000D01*
X147690500Y-97892000D01*
X148123250Y-97892000D01*
X148127417Y-97887833D01*
X148186673Y-97947192D01*
X148530201Y-98089838D01*
X148902167Y-98090162D01*
X149245943Y-97948117D01*
X149279118Y-97915000D01*
X149479000Y-97915000D01*
X149769839Y-97857148D01*
X149780910Y-97849750D01*
X152539000Y-97849750D01*
X152539000Y-98304935D01*
X152604007Y-98461876D01*
X152724124Y-98581993D01*
X152881064Y-98647000D01*
X153186250Y-98647000D01*
X153293000Y-98540250D01*
X153293000Y-97743000D01*
X152645750Y-97743000D01*
X152539000Y-97849750D01*
X149780910Y-97849750D01*
X150016401Y-97692401D01*
X150524401Y-97184401D01*
X150588913Y-97087852D01*
X150689148Y-96937839D01*
X150747000Y-96647000D01*
X150747000Y-94107000D01*
X150689148Y-93816161D01*
X150524401Y-93569599D01*
X150078400Y-93123598D01*
X150035851Y-93095168D01*
X150048440Y-93033000D01*
X150048440Y-92261750D01*
X152539000Y-92261750D01*
X152539000Y-92716935D01*
X152604007Y-92873876D01*
X152724124Y-92993993D01*
X152881064Y-93059000D01*
X153186250Y-93059000D01*
X153293000Y-92952250D01*
X153293000Y-92155000D01*
X152645750Y-92155000D01*
X152539000Y-92261750D01*
X150048440Y-92261750D01*
X150048440Y-92133000D01*
X150004162Y-91897683D01*
X149955566Y-91822162D01*
X149997431Y-91760890D01*
X150048440Y-91509000D01*
X150048440Y-90609000D01*
X150004162Y-90373683D01*
X149955566Y-90298162D01*
X149997431Y-90236890D01*
X150048440Y-89985000D01*
X150048440Y-89085000D01*
X150004162Y-88849683D01*
X149865090Y-88633559D01*
X149652890Y-88488569D01*
X149561000Y-88469961D01*
X149561000Y-84812802D01*
X149999680Y-84374122D01*
X150045167Y-84374162D01*
X150388943Y-84232117D01*
X150652192Y-83969327D01*
X150794838Y-83625799D01*
X150795162Y-83253833D01*
X150653117Y-82910057D01*
X150390327Y-82646808D01*
X150046799Y-82504162D01*
X149674833Y-82503838D01*
X149331057Y-82645883D01*
X149067808Y-82908673D01*
X148925162Y-83252201D01*
X148925121Y-83299077D01*
X148263599Y-83960599D01*
X148098852Y-84207161D01*
X148041000Y-84498000D01*
X148041000Y-88467666D01*
X147965683Y-88481838D01*
X147749559Y-88620910D01*
X147604569Y-88833110D01*
X147589555Y-88907250D01*
X147562993Y-88843124D01*
X147442876Y-88723007D01*
X147285935Y-88658000D01*
X146830750Y-88658000D01*
X146724000Y-88764750D01*
X146724000Y-89412000D01*
X146744000Y-89412000D01*
X146744000Y-89658000D01*
X146724000Y-89658000D01*
X146724000Y-89678000D01*
X146478000Y-89678000D01*
X146478000Y-89658000D01*
X145680750Y-89658000D01*
X145574000Y-89764750D01*
X145574000Y-90069936D01*
X145593376Y-90116714D01*
X145549559Y-90144910D01*
X145404569Y-90357110D01*
X145353560Y-90609000D01*
X145353560Y-91231638D01*
X144440599Y-92144599D01*
X144275852Y-92391161D01*
X144218000Y-92682000D01*
X144218000Y-93084560D01*
X143818759Y-93084560D01*
X143836000Y-93042936D01*
X143836000Y-92812750D01*
X143729250Y-92706000D01*
X142932000Y-92706000D01*
X142932000Y-92726000D01*
X142686000Y-92726000D01*
X142686000Y-92706000D01*
X142666000Y-92706000D01*
X142666000Y-92460000D01*
X142686000Y-92460000D01*
X142686000Y-91887750D01*
X142932000Y-91887750D01*
X142932000Y-92460000D01*
X143729250Y-92460000D01*
X143836000Y-92353250D01*
X143836000Y-92123064D01*
X143770993Y-91966124D01*
X143650876Y-91846007D01*
X143493935Y-91781000D01*
X143038750Y-91781000D01*
X142932000Y-91887750D01*
X142686000Y-91887750D01*
X142579250Y-91781000D01*
X142124065Y-91781000D01*
X142017280Y-91825232D01*
X141973090Y-91756559D01*
X141760890Y-91611569D01*
X141509000Y-91560560D01*
X140309000Y-91560560D01*
X140217022Y-91577867D01*
X140217022Y-90526750D01*
X140784000Y-90526750D01*
X140784000Y-90681936D01*
X140849007Y-90838876D01*
X140969124Y-90958993D01*
X141126065Y-91024000D01*
X141756250Y-91024000D01*
X141863000Y-90917250D01*
X141863000Y-90420000D01*
X140890750Y-90420000D01*
X140784000Y-90526750D01*
X140217022Y-90526750D01*
X140217022Y-90125780D01*
X140675436Y-89667366D01*
X140746910Y-89778441D01*
X140818958Y-89827669D01*
X140784000Y-89912064D01*
X140784000Y-90067250D01*
X140890750Y-90174000D01*
X141863000Y-90174000D01*
X141863000Y-90154000D01*
X142109000Y-90154000D01*
X142109000Y-90174000D01*
X142129000Y-90174000D01*
X142129000Y-90420000D01*
X142109000Y-90420000D01*
X142109000Y-90917250D01*
X142215750Y-91024000D01*
X142845935Y-91024000D01*
X143002876Y-90958993D01*
X143122993Y-90838876D01*
X143188000Y-90681936D01*
X143188000Y-90544403D01*
X143206007Y-90587876D01*
X143326124Y-90707993D01*
X143483064Y-90773000D01*
X143788250Y-90773000D01*
X143895000Y-90666250D01*
X143895000Y-89869000D01*
X144141000Y-89869000D01*
X144141000Y-90666250D01*
X144247750Y-90773000D01*
X144552936Y-90773000D01*
X144709876Y-90707993D01*
X144829993Y-90587876D01*
X144895000Y-90430935D01*
X144895000Y-89975750D01*
X144788250Y-89869000D01*
X144141000Y-89869000D01*
X143895000Y-89869000D01*
X143875000Y-89869000D01*
X143875000Y-89623000D01*
X143895000Y-89623000D01*
X143895000Y-89603000D01*
X144141000Y-89603000D01*
X144141000Y-89623000D01*
X144788250Y-89623000D01*
X144895000Y-89516250D01*
X144895000Y-89061065D01*
X144869733Y-89000064D01*
X145574000Y-89000064D01*
X145574000Y-89305250D01*
X145680750Y-89412000D01*
X146478000Y-89412000D01*
X146478000Y-88764750D01*
X146371250Y-88658000D01*
X145916065Y-88658000D01*
X145759124Y-88723007D01*
X145639007Y-88843124D01*
X145574000Y-89000064D01*
X144869733Y-89000064D01*
X144829993Y-88904124D01*
X144709876Y-88784007D01*
X144649982Y-88759198D01*
X144703317Y-88749162D01*
X144919441Y-88610090D01*
X144950223Y-88565038D01*
X145092167Y-88565162D01*
X145435943Y-88423117D01*
X145699192Y-88160327D01*
X145841838Y-87816799D01*
X145842162Y-87444833D01*
X145700117Y-87101057D01*
X145437327Y-86837808D01*
X145093799Y-86695162D01*
X145061156Y-86695134D01*
X144932090Y-86494559D01*
X144719890Y-86349569D01*
X144468000Y-86298560D01*
X143845362Y-86298560D01*
X143496401Y-85949599D01*
X143262067Y-85793022D01*
X143225090Y-85735559D01*
X143012890Y-85590569D01*
X142761000Y-85539560D01*
X141211000Y-85539560D01*
X140975683Y-85583838D01*
X140759559Y-85722910D01*
X140614569Y-85935110D01*
X140563560Y-86187000D01*
X140563560Y-86787000D01*
X140607838Y-87022317D01*
X140671678Y-87121528D01*
X140614569Y-87205110D01*
X140563560Y-87457000D01*
X140563560Y-87629638D01*
X138919621Y-89273577D01*
X138754874Y-89520139D01*
X138733980Y-89625178D01*
X138008440Y-88899638D01*
X138008440Y-88727000D01*
X137964162Y-88491683D01*
X137900322Y-88392472D01*
X137957431Y-88308890D01*
X138008440Y-88057000D01*
X138008440Y-87457000D01*
X137964162Y-87221683D01*
X137900322Y-87122472D01*
X137957431Y-87038890D01*
X138008440Y-86787000D01*
X138008440Y-86187000D01*
X137964162Y-85951683D01*
X137839637Y-85758165D01*
X137866362Y-85731440D01*
X138969000Y-85731440D01*
X139204317Y-85687162D01*
X139420441Y-85548090D01*
X139476287Y-85466357D01*
X139584065Y-85511000D01*
X140039250Y-85511000D01*
X140146000Y-85404250D01*
X140146000Y-84832000D01*
X140392000Y-84832000D01*
X140392000Y-85404250D01*
X140498750Y-85511000D01*
X140953935Y-85511000D01*
X141110876Y-85445993D01*
X141230993Y-85325876D01*
X141296000Y-85168936D01*
X141296000Y-84938750D01*
X141189250Y-84832000D01*
X140392000Y-84832000D01*
X140146000Y-84832000D01*
X140126000Y-84832000D01*
X140126000Y-84586000D01*
X140146000Y-84586000D01*
X140146000Y-84013750D01*
X140392000Y-84013750D01*
X140392000Y-84586000D01*
X141189250Y-84586000D01*
X141296000Y-84479250D01*
X141296000Y-84249064D01*
X141230993Y-84092124D01*
X141110876Y-83972007D01*
X140953935Y-83907000D01*
X140498750Y-83907000D01*
X140392000Y-84013750D01*
X140146000Y-84013750D01*
X140039250Y-83907000D01*
X139584065Y-83907000D01*
X139477280Y-83951232D01*
X139433090Y-83882559D01*
X139220890Y-83737569D01*
X138969000Y-83686560D01*
X137769000Y-83686560D01*
X137533683Y-83730838D01*
X137317559Y-83869910D01*
X137172569Y-84082110D01*
X137137864Y-84253489D01*
X137055327Y-84170808D01*
X136711799Y-84028162D01*
X136339833Y-84027838D01*
X135996057Y-84169883D01*
X135937838Y-84228000D01*
X134566000Y-84228000D01*
X134284728Y-84283949D01*
X134046277Y-84443276D01*
X131847911Y-86641642D01*
X131813876Y-86607607D01*
X131656935Y-86542600D01*
X131547750Y-86542600D01*
X131441000Y-86649350D01*
X131441000Y-86957160D01*
X131195000Y-86957160D01*
X131195000Y-86649350D01*
X131088250Y-86542600D01*
X130987000Y-86542600D01*
X130987000Y-80949000D01*
X153747000Y-80949000D01*
X153747000Y-87644040D01*
G36*
X131794510Y-98931730D02*
X131794510Y-99731830D01*
X131838788Y-99967147D01*
X131977860Y-100183271D01*
X132190060Y-100328261D01*
X132441950Y-100379270D01*
X132824555Y-100379270D01*
X132948036Y-100461777D01*
X132940509Y-100466620D01*
X132795519Y-100678820D01*
X132744510Y-100930710D01*
X132744510Y-101730810D01*
X132761560Y-101821422D01*
X132700397Y-101860779D01*
X132719050Y-101815746D01*
X132719050Y-101560510D01*
X132612300Y-101453760D01*
X132015000Y-101453760D01*
X132015000Y-101473760D01*
X131769000Y-101473760D01*
X131769000Y-101453760D01*
X131171700Y-101453760D01*
X131064950Y-101560510D01*
X131064950Y-101772560D01*
X130987000Y-101772560D01*
X130987000Y-100845774D01*
X131064950Y-100845774D01*
X131064950Y-101101010D01*
X131171700Y-101207760D01*
X131769000Y-101207760D01*
X131769000Y-100610460D01*
X132015000Y-100610460D01*
X132015000Y-101207760D01*
X132612300Y-101207760D01*
X132719050Y-101101010D01*
X132719050Y-100845774D01*
X132654043Y-100688834D01*
X132533926Y-100568717D01*
X132376985Y-100503710D01*
X132121750Y-100503710D01*
X132015000Y-100610460D01*
X131769000Y-100610460D01*
X131662250Y-100503710D01*
X131407015Y-100503710D01*
X131250074Y-100568717D01*
X131129957Y-100688834D01*
X131064950Y-100845774D01*
X130987000Y-100845774D01*
X130987000Y-98887440D01*
X131803479Y-98887440D01*
X131794510Y-98931730D01*
X131794510Y-98931730D01*
G37*
X131794510Y-98931730D02*
X131794510Y-99731830D01*
X131838788Y-99967147D01*
X131977860Y-100183271D01*
X132190060Y-100328261D01*
X132441950Y-100379270D01*
X132824555Y-100379270D01*
X132948036Y-100461777D01*
X132940509Y-100466620D01*
X132795519Y-100678820D01*
X132744510Y-100930710D01*
X132744510Y-101730810D01*
X132761560Y-101821422D01*
X132700397Y-101860779D01*
X132719050Y-101815746D01*
X132719050Y-101560510D01*
X132612300Y-101453760D01*
X132015000Y-101453760D01*
X132015000Y-101473760D01*
X131769000Y-101473760D01*
X131769000Y-101453760D01*
X131171700Y-101453760D01*
X131064950Y-101560510D01*
X131064950Y-101772560D01*
X130987000Y-101772560D01*
X130987000Y-100845774D01*
X131064950Y-100845774D01*
X131064950Y-101101010D01*
X131171700Y-101207760D01*
X131769000Y-101207760D01*
X131769000Y-100610460D01*
X132015000Y-100610460D01*
X132015000Y-101207760D01*
X132612300Y-101207760D01*
X132719050Y-101101010D01*
X132719050Y-100845774D01*
X132654043Y-100688834D01*
X132533926Y-100568717D01*
X132376985Y-100503710D01*
X132121750Y-100503710D01*
X132015000Y-100610460D01*
X131769000Y-100610460D01*
X131662250Y-100503710D01*
X131407015Y-100503710D01*
X131250074Y-100568717D01*
X131129957Y-100688834D01*
X131064950Y-100845774D01*
X130987000Y-100845774D01*
X130987000Y-98887440D01*
X131803479Y-98887440D01*
X131794510Y-98931730D01*
G36*
X142932000Y-95508000D02*
X142952000Y-95508000D01*
X142952000Y-95754000D01*
X142932000Y-95754000D01*
X142932000Y-96326250D01*
X143038750Y-96433000D01*
X143065000Y-96433000D01*
X143065000Y-96581000D01*
X143100989Y-96761928D01*
X143025773Y-96810329D01*
X142854890Y-96693569D01*
X142603000Y-96642560D01*
X142488000Y-96642560D01*
X142488000Y-96450000D01*
X142484618Y-96433000D01*
X142579250Y-96433000D01*
X142686000Y-96326250D01*
X142686000Y-95754000D01*
X142666000Y-95754000D01*
X142666000Y-95508000D01*
X142686000Y-95508000D01*
X142686000Y-95488000D01*
X142932000Y-95488000D01*
X142932000Y-95508000D01*
X142932000Y-95508000D01*
G37*
X142932000Y-95508000D02*
X142952000Y-95508000D01*
X142952000Y-95754000D01*
X142932000Y-95754000D01*
X142932000Y-96326250D01*
X143038750Y-96433000D01*
X143065000Y-96433000D01*
X143065000Y-96581000D01*
X143100989Y-96761928D01*
X143025773Y-96810329D01*
X142854890Y-96693569D01*
X142603000Y-96642560D01*
X142488000Y-96642560D01*
X142488000Y-96450000D01*
X142484618Y-96433000D01*
X142579250Y-96433000D01*
X142686000Y-96326250D01*
X142686000Y-95754000D01*
X142666000Y-95754000D01*
X142666000Y-95508000D01*
X142686000Y-95508000D01*
X142686000Y-95488000D01*
X142932000Y-95488000D01*
X142932000Y-95508000D01*
G36*
X148794000Y-94484000D02*
X148774000Y-94484000D01*
X148774000Y-95056250D01*
X148840750Y-95123000D01*
X148774000Y-95189750D01*
X148774000Y-95762000D01*
X148794000Y-95762000D01*
X148794000Y-96008000D01*
X148774000Y-96008000D01*
X148774000Y-96028000D01*
X148528000Y-96028000D01*
X148528000Y-96008000D01*
X148508000Y-96008000D01*
X148508000Y-95762000D01*
X148528000Y-95762000D01*
X148528000Y-95189750D01*
X148461250Y-95123000D01*
X148528000Y-95056250D01*
X148528000Y-94484000D01*
X148508000Y-94484000D01*
X148508000Y-94420999D01*
X148794000Y-94420999D01*
X148794000Y-94484000D01*
X148794000Y-94484000D01*
G37*
X148794000Y-94484000D02*
X148774000Y-94484000D01*
X148774000Y-95056250D01*
X148840750Y-95123000D01*
X148774000Y-95189750D01*
X148774000Y-95762000D01*
X148794000Y-95762000D01*
X148794000Y-96008000D01*
X148774000Y-96008000D01*
X148774000Y-96028000D01*
X148528000Y-96028000D01*
X148528000Y-96008000D01*
X148508000Y-96008000D01*
X148508000Y-95762000D01*
X148528000Y-95762000D01*
X148528000Y-95189750D01*
X148461250Y-95123000D01*
X148528000Y-95056250D01*
X148528000Y-94484000D01*
X148508000Y-94484000D01*
X148508000Y-94420999D01*
X148794000Y-94420999D01*
X148794000Y-94484000D01*
G36*
X142048000Y-93984000D02*
X142068000Y-93984000D01*
X142068000Y-94230000D01*
X142048000Y-94230000D01*
X142048000Y-94250000D01*
X141802000Y-94250000D01*
X141802000Y-94230000D01*
X141782000Y-94230000D01*
X141782000Y-93984000D01*
X141802000Y-93984000D01*
X141802000Y-93964000D01*
X142048000Y-93964000D01*
X142048000Y-93984000D01*
X142048000Y-93984000D01*
G37*
X142048000Y-93984000D02*
X142068000Y-93984000D01*
X142068000Y-94230000D01*
X142048000Y-94230000D01*
X142048000Y-94250000D01*
X141802000Y-94250000D01*
X141802000Y-94230000D01*
X141782000Y-94230000D01*
X141782000Y-93984000D01*
X141802000Y-93984000D01*
X141802000Y-93964000D01*
X142048000Y-93964000D01*
X142048000Y-93984000D01*
G36*
X131064000Y-89191840D02*
X131547038Y-89191840D01*
X131723198Y-89368000D01*
X131613750Y-89368000D01*
X131507000Y-89474750D01*
X131507000Y-90047000D01*
X131527000Y-90047000D01*
X131527000Y-90293000D01*
X131507000Y-90293000D01*
X131507000Y-90313000D01*
X131261000Y-90313000D01*
X131261000Y-90293000D01*
X131241000Y-90293000D01*
X131241000Y-90047000D01*
X131261000Y-90047000D01*
X131261000Y-89474750D01*
X131154250Y-89368000D01*
X130987000Y-89368000D01*
X130987000Y-89176247D01*
X131064000Y-89191840D01*
X131064000Y-89191840D01*
G37*
X131064000Y-89191840D02*
X131547038Y-89191840D01*
X131723198Y-89368000D01*
X131613750Y-89368000D01*
X131507000Y-89474750D01*
X131507000Y-90047000D01*
X131527000Y-90047000D01*
X131527000Y-90293000D01*
X131507000Y-90293000D01*
X131507000Y-90313000D01*
X131261000Y-90313000D01*
X131261000Y-90293000D01*
X131241000Y-90293000D01*
X131241000Y-90047000D01*
X131261000Y-90047000D01*
X131261000Y-89474750D01*
X131154250Y-89368000D01*
X130987000Y-89368000D01*
X130987000Y-89176247D01*
X131064000Y-89191840D01*
M02*
