M48
INCH,TZ
T1C0.016
T2C0.030
%
G90
G05
T1
X51764Y-39200
X52100Y-37300
X52200Y-40850
X52600Y-36600
X52900Y-34550
X53000Y-37800
X53150Y-44200
X53150Y-45450
X53250Y-34550
X53350Y-44850
X53380Y-33069
X53750Y-33450
X54250Y-43000
X54250Y-43600
X54287Y-40921
X54300Y-39300
X54300Y-40100
X55300Y-38250
X55500Y-40800
X56050Y-45400
X56400Y-44550
X56400Y-45550
X57050Y-34500
X57088Y-41400
X57350Y-40450
X57700Y-32800
X57750Y-36824
X57900Y-44100
X58150Y-36800
X58550Y-38250
X59000Y-32850
X59000Y-41407
X59000Y-43300
X59650Y-42350
X60400Y-34850
X60600Y-37050
T2
X55400Y-45050
X56400Y-45050
X57384Y-45050
T0
M30
