G04 #@! TF.FileFunction,Soldermask,Top*
%FSLAX46Y46*%
G04 Gerber Fmt 4.6, Leading zero omitted, Abs format (unit mm)*
G04 Created by KiCad (PCBNEW 4.0.4-stable) date 11/08/16 21:01:40*
%MOMM*%
%LPD*%
G01*
G04 APERTURE LIST*
%ADD10C,0.100000*%
%ADD11R,2.000000X1.000000*%
%ADD12R,1.000000X2.000000*%
%ADD13R,0.750000X1.200000*%
%ADD14R,0.900000X1.200000*%
%ADD15R,1.600000X2.180000*%
%ADD16C,1.524000*%
%ADD17C,2.999740*%
G04 APERTURE END LIST*
D10*
D11*
X136136000Y-91950000D03*
X136136000Y-93950000D03*
X136136000Y-95950000D03*
X136136000Y-97950000D03*
X136136000Y-99950000D03*
X136136000Y-101950000D03*
X136136000Y-103950000D03*
X136136000Y-105950000D03*
D12*
X138636000Y-107450000D03*
X140636000Y-107450000D03*
X142636000Y-107450000D03*
X144636000Y-107450000D03*
X146636000Y-107450000D03*
X148636000Y-107450000D03*
D11*
X151136000Y-105950000D03*
X151136000Y-103950000D03*
X151136000Y-101950000D03*
X151136000Y-99950000D03*
X151136000Y-97950000D03*
X151136000Y-95950000D03*
X151136000Y-93950000D03*
X151136000Y-91950000D03*
D13*
X136398000Y-109032000D03*
X136398000Y-110932000D03*
D14*
X153416000Y-89832000D03*
X153416000Y-92032000D03*
X153416000Y-95420000D03*
X153416000Y-97620000D03*
X153416000Y-99611000D03*
X153416000Y-101811000D03*
D15*
X132588000Y-98044000D03*
X132592640Y-88839140D03*
D14*
X153416000Y-106086000D03*
X153416000Y-103886000D03*
D15*
X132588000Y-110296860D03*
X132592640Y-101092000D03*
D16*
X145756000Y-114427000D03*
X143256000Y-114427000D03*
X140716000Y-114427000D03*
D17*
X151638000Y-82042000D03*
X133350000Y-113919000D03*
X151511000Y-113792000D03*
X148209000Y-82042000D03*
X135636000Y-82042000D03*
X142494000Y-82042000D03*
X139065000Y-82042000D03*
M02*
